G04 #@! TF.FileFunction,Soldermask,Top*
%FSLAX46Y46*%
G04 Gerber Fmt 4.6, Leading zero omitted, Abs format (unit mm)*
G04 Created by KiCad (PCBNEW 4.0.7) date 02/24/18 18:12:37*
%MOMM*%
%LPD*%
G01*
G04 APERTURE LIST*
%ADD10C,0.100000*%
%ADD11C,2.100000*%
%ADD12R,2.100000X2.100000*%
%ADD13O,2.100000X2.100000*%
%ADD14R,1.900000X1.700000*%
%ADD15R,2.400000X1.200000*%
%ADD16R,1.200000X2.400000*%
G04 APERTURE END LIST*
D10*
D11*
X130452000Y-67492000D03*
X123952000Y-67492000D03*
X130452000Y-62992000D03*
X123952000Y-62992000D03*
D12*
X135382000Y-91694000D03*
D13*
X135382000Y-89154000D03*
X135382000Y-86614000D03*
X135382000Y-84074000D03*
X135382000Y-81534000D03*
X135382000Y-78994000D03*
X135382000Y-76454000D03*
X135382000Y-73914000D03*
X135382000Y-71374000D03*
X135382000Y-68834000D03*
X135382000Y-66294000D03*
X135382000Y-63754000D03*
X135382000Y-61214000D03*
X135382000Y-58674000D03*
D12*
X162814000Y-51054000D03*
D13*
X162814000Y-53594000D03*
X162814000Y-56134000D03*
X162814000Y-58674000D03*
X162814000Y-61214000D03*
X162814000Y-63754000D03*
X162814000Y-66294000D03*
X162814000Y-68834000D03*
X162814000Y-71374000D03*
X162814000Y-73914000D03*
X162814000Y-76454000D03*
X162814000Y-78994000D03*
X162814000Y-81534000D03*
X162814000Y-84074000D03*
X162814000Y-86614000D03*
X162814000Y-89154000D03*
X162814000Y-91694000D03*
D14*
X138764000Y-50546000D03*
X136064000Y-50546000D03*
X138764000Y-52578000D03*
X136064000Y-52578000D03*
X138764000Y-54610000D03*
X136064000Y-54610000D03*
X134192000Y-50546000D03*
X131492000Y-50546000D03*
X134192000Y-52578000D03*
X131492000Y-52578000D03*
X134192000Y-54610000D03*
X131492000Y-54610000D03*
D15*
X142748000Y-50250000D03*
X142748000Y-51350000D03*
X142748000Y-52450000D03*
X142748000Y-53550000D03*
X142748000Y-54650000D03*
X142748000Y-55750000D03*
X142748000Y-56850000D03*
X142748000Y-57950000D03*
X142748000Y-59050000D03*
X142748000Y-60150000D03*
X142748000Y-61250000D03*
X142748000Y-62350000D03*
X142748000Y-63450000D03*
X142748000Y-64550000D03*
X142748000Y-65650000D03*
X142748000Y-66750000D03*
X142748000Y-67850000D03*
D16*
X144748000Y-69850000D03*
X145948000Y-69850000D03*
X147148000Y-69850000D03*
X148348000Y-69850000D03*
X149548000Y-69850000D03*
X150748000Y-69850000D03*
X151948000Y-69850000D03*
X153148000Y-69850000D03*
X154348000Y-69850000D03*
D15*
X156248000Y-50250000D03*
X156248000Y-51350000D03*
X156248000Y-52450000D03*
X156248000Y-53550000D03*
X156248000Y-54650000D03*
X156248000Y-55750000D03*
X156248000Y-56850000D03*
X156248000Y-57950000D03*
X156248000Y-59050000D03*
X156248000Y-60150000D03*
X156248000Y-61250000D03*
X156248000Y-62350000D03*
X156248000Y-63450000D03*
X156248000Y-64550000D03*
X156248000Y-65650000D03*
X156248000Y-66750000D03*
X156248000Y-67850000D03*
D12*
X130810000Y-79502000D03*
D13*
X130810000Y-82042000D03*
X130810000Y-84582000D03*
D12*
X159258000Y-91694000D03*
D13*
X156718000Y-91694000D03*
X154178000Y-91694000D03*
X151638000Y-91694000D03*
X149098000Y-91694000D03*
X146558000Y-91694000D03*
X144018000Y-91694000D03*
X141478000Y-91694000D03*
X138938000Y-91694000D03*
D12*
X124460000Y-58674000D03*
D11*
X173632000Y-57586000D03*
X167132000Y-57586000D03*
X173632000Y-53086000D03*
X167132000Y-53086000D03*
X173632000Y-66222000D03*
X167132000Y-66222000D03*
X173632000Y-61722000D03*
X167132000Y-61722000D03*
X173632000Y-74858000D03*
X167132000Y-74858000D03*
X173632000Y-70358000D03*
X167132000Y-70358000D03*
X173632000Y-83494000D03*
X167132000Y-83494000D03*
X173632000Y-78994000D03*
X167132000Y-78994000D03*
X173632000Y-92130000D03*
X167132000Y-92130000D03*
X173632000Y-87630000D03*
X167132000Y-87630000D03*
X130452000Y-75874000D03*
X123952000Y-75874000D03*
X130452000Y-71374000D03*
X123952000Y-71374000D03*
M02*
