G04 #@! TF.FileFunction,Legend,Top*
%FSLAX46Y46*%
G04 Gerber Fmt 4.6, Leading zero omitted, Abs format (unit mm)*
G04 Created by KiCad (PCBNEW 4.0.7) date 02/24/18 18:12:37*
%MOMM*%
%LPD*%
G01*
G04 APERTURE LIST*
%ADD10C,0.100000*%
%ADD11C,0.120000*%
%ADD12C,0.150000*%
G04 APERTURE END LIST*
D10*
D11*
X128616214Y-65242000D02*
G75*
G03X128616214Y-65242000I-1414214J0D01*
G01*
X124232000Y-68362000D02*
X130172000Y-68362000D01*
X124232000Y-62122000D02*
X130172000Y-62122000D01*
X124082000Y-66582000D02*
X124082000Y-63902000D01*
X130322000Y-63902000D02*
X130322000Y-66582000D01*
X136712000Y-57344000D02*
X134052000Y-57344000D01*
X136712000Y-90424000D02*
X136712000Y-57344000D01*
X134052000Y-90424000D02*
X134052000Y-57344000D01*
X136712000Y-90424000D02*
X134052000Y-90424000D01*
X136712000Y-91694000D02*
X136712000Y-93024000D01*
X136712000Y-93024000D02*
X135382000Y-93024000D01*
X161484000Y-93024000D02*
X164144000Y-93024000D01*
X161484000Y-52324000D02*
X161484000Y-93024000D01*
X164144000Y-52324000D02*
X164144000Y-93024000D01*
X161484000Y-52324000D02*
X164144000Y-52324000D01*
X161484000Y-51054000D02*
X161484000Y-49724000D01*
X161484000Y-49724000D02*
X162814000Y-49724000D01*
X136414000Y-49796000D02*
X139614000Y-49796000D01*
X139614000Y-51296000D02*
X136414000Y-51296000D01*
X139614000Y-51296000D02*
X139614000Y-49796000D01*
X136414000Y-51828000D02*
X139614000Y-51828000D01*
X139614000Y-53328000D02*
X136414000Y-53328000D01*
X139614000Y-53328000D02*
X139614000Y-51828000D01*
X136414000Y-53860000D02*
X139614000Y-53860000D01*
X139614000Y-55360000D02*
X136414000Y-55360000D01*
X139614000Y-55360000D02*
X139614000Y-53860000D01*
X132242000Y-49666000D02*
X133442000Y-49666000D01*
X133442000Y-51426000D02*
X132242000Y-51426000D01*
X132242000Y-51698000D02*
X133442000Y-51698000D01*
X133442000Y-53458000D02*
X132242000Y-53458000D01*
X132242000Y-53730000D02*
X133442000Y-53730000D01*
X133442000Y-55490000D02*
X132242000Y-55490000D01*
D12*
X144658000Y-49030000D02*
X144658000Y-44540000D01*
X144658000Y-44540000D02*
X146588000Y-44540000D01*
X146588000Y-44540000D02*
X146588000Y-46650000D01*
X146588000Y-46650000D02*
X147138000Y-46650000D01*
X147138000Y-46650000D02*
X147138000Y-44560000D01*
X147138000Y-44560000D02*
X149058000Y-44550000D01*
X149058000Y-44550000D02*
X149058000Y-46560000D01*
X149058000Y-46560000D02*
X149908000Y-46560000D01*
X149908000Y-46550000D02*
X149898000Y-44580000D01*
X149898000Y-44580000D02*
X151598000Y-44580000D01*
X151598000Y-44580000D02*
X151598000Y-46520000D01*
X151618000Y-46520000D02*
X152408000Y-46520000D01*
X152408000Y-46520000D02*
X152408000Y-44610000D01*
X152408000Y-44610000D02*
X155368000Y-44610000D01*
X156248000Y-49750000D02*
X156248000Y-43650000D01*
X156248000Y-43650000D02*
X142748000Y-43650000D01*
X142748000Y-43650000D02*
X142748000Y-49750000D01*
X156248000Y-68350000D02*
X156248000Y-69850000D01*
X156248000Y-69850000D02*
X154848000Y-69850000D01*
X142748000Y-68350000D02*
X142748000Y-69850000D01*
X142748000Y-69850000D02*
X144248000Y-69850000D01*
D11*
X129480000Y-85912000D02*
X132140000Y-85912000D01*
X129480000Y-80772000D02*
X129480000Y-85912000D01*
X132140000Y-80772000D02*
X132140000Y-85912000D01*
X129480000Y-80772000D02*
X132140000Y-80772000D01*
X129480000Y-79502000D02*
X129480000Y-78172000D01*
X129480000Y-78172000D02*
X130810000Y-78172000D01*
X137608000Y-90364000D02*
X137608000Y-93024000D01*
X157988000Y-90364000D02*
X137608000Y-90364000D01*
X157988000Y-93024000D02*
X137608000Y-93024000D01*
X157988000Y-90364000D02*
X157988000Y-93024000D01*
X159258000Y-90364000D02*
X160588000Y-90364000D01*
X160588000Y-90364000D02*
X160588000Y-91694000D01*
X123130000Y-60004000D02*
X125790000Y-60004000D01*
X123130000Y-59944000D02*
X123130000Y-60004000D01*
X125790000Y-59944000D02*
X125790000Y-60004000D01*
X123130000Y-59944000D02*
X125790000Y-59944000D01*
X123130000Y-58674000D02*
X123130000Y-57344000D01*
X123130000Y-57344000D02*
X124460000Y-57344000D01*
X171796214Y-55336000D02*
G75*
G03X171796214Y-55336000I-1414214J0D01*
G01*
X167412000Y-58456000D02*
X173352000Y-58456000D01*
X167412000Y-52216000D02*
X173352000Y-52216000D01*
X167262000Y-56676000D02*
X167262000Y-53996000D01*
X173502000Y-53996000D02*
X173502000Y-56676000D01*
X171796214Y-63972000D02*
G75*
G03X171796214Y-63972000I-1414214J0D01*
G01*
X167412000Y-67092000D02*
X173352000Y-67092000D01*
X167412000Y-60852000D02*
X173352000Y-60852000D01*
X167262000Y-65312000D02*
X167262000Y-62632000D01*
X173502000Y-62632000D02*
X173502000Y-65312000D01*
X171796214Y-72608000D02*
G75*
G03X171796214Y-72608000I-1414214J0D01*
G01*
X167412000Y-75728000D02*
X173352000Y-75728000D01*
X167412000Y-69488000D02*
X173352000Y-69488000D01*
X167262000Y-73948000D02*
X167262000Y-71268000D01*
X173502000Y-71268000D02*
X173502000Y-73948000D01*
X171796214Y-81244000D02*
G75*
G03X171796214Y-81244000I-1414214J0D01*
G01*
X167412000Y-84364000D02*
X173352000Y-84364000D01*
X167412000Y-78124000D02*
X173352000Y-78124000D01*
X167262000Y-82584000D02*
X167262000Y-79904000D01*
X173502000Y-79904000D02*
X173502000Y-82584000D01*
X171796214Y-89880000D02*
G75*
G03X171796214Y-89880000I-1414214J0D01*
G01*
X167412000Y-93000000D02*
X173352000Y-93000000D01*
X167412000Y-86760000D02*
X173352000Y-86760000D01*
X167262000Y-91220000D02*
X167262000Y-88540000D01*
X173502000Y-88540000D02*
X173502000Y-91220000D01*
X128616214Y-73624000D02*
G75*
G03X128616214Y-73624000I-1414214J0D01*
G01*
X124232000Y-76744000D02*
X130172000Y-76744000D01*
X124232000Y-70504000D02*
X130172000Y-70504000D01*
X124082000Y-74964000D02*
X124082000Y-72284000D01*
X130322000Y-72284000D02*
X130322000Y-74964000D01*
D12*
X125868667Y-61346762D02*
X126011524Y-61394381D01*
X126249620Y-61394381D01*
X126344858Y-61346762D01*
X126392477Y-61299143D01*
X126440096Y-61203905D01*
X126440096Y-61108667D01*
X126392477Y-61013429D01*
X126344858Y-60965810D01*
X126249620Y-60918190D01*
X126059143Y-60870571D01*
X125963905Y-60822952D01*
X125916286Y-60775333D01*
X125868667Y-60680095D01*
X125868667Y-60584857D01*
X125916286Y-60489619D01*
X125963905Y-60442000D01*
X126059143Y-60394381D01*
X126297239Y-60394381D01*
X126440096Y-60442000D01*
X126773429Y-60394381D02*
X127011524Y-61394381D01*
X127202001Y-60680095D01*
X127392477Y-61394381D01*
X127630572Y-60394381D01*
X127916286Y-60394381D02*
X128582953Y-60394381D01*
X128154381Y-61394381D01*
X132166667Y-90952381D02*
X132166667Y-91666667D01*
X132119047Y-91809524D01*
X132023809Y-91904762D01*
X131880952Y-91952381D01*
X131785714Y-91952381D01*
X132595238Y-91047619D02*
X132642857Y-91000000D01*
X132738095Y-90952381D01*
X132976191Y-90952381D01*
X133071429Y-91000000D01*
X133119048Y-91047619D01*
X133166667Y-91142857D01*
X133166667Y-91238095D01*
X133119048Y-91380952D01*
X132547619Y-91952381D01*
X133166667Y-91952381D01*
X162480667Y-48176381D02*
X162480667Y-48890667D01*
X162433047Y-49033524D01*
X162337809Y-49128762D01*
X162194952Y-49176381D01*
X162099714Y-49176381D01*
X163433048Y-48176381D02*
X162956857Y-48176381D01*
X162909238Y-48652571D01*
X162956857Y-48604952D01*
X163052095Y-48557333D01*
X163290191Y-48557333D01*
X163385429Y-48604952D01*
X163433048Y-48652571D01*
X163480667Y-48747810D01*
X163480667Y-48985905D01*
X163433048Y-49081143D01*
X163385429Y-49128762D01*
X163290191Y-49176381D01*
X163052095Y-49176381D01*
X162956857Y-49128762D01*
X162909238Y-49081143D01*
X139761905Y-50952381D02*
X139761905Y-49952381D01*
X140000000Y-49952381D01*
X140142858Y-50000000D01*
X140238096Y-50095238D01*
X140285715Y-50190476D01*
X140333334Y-50380952D01*
X140333334Y-50523810D01*
X140285715Y-50714286D01*
X140238096Y-50809524D01*
X140142858Y-50904762D01*
X140000000Y-50952381D01*
X139761905Y-50952381D01*
X141285715Y-50952381D02*
X140714286Y-50952381D01*
X141000000Y-50952381D02*
X141000000Y-49952381D01*
X140904762Y-50095238D01*
X140809524Y-50190476D01*
X140714286Y-50238095D01*
X139761905Y-52952381D02*
X139761905Y-51952381D01*
X140000000Y-51952381D01*
X140142858Y-52000000D01*
X140238096Y-52095238D01*
X140285715Y-52190476D01*
X140333334Y-52380952D01*
X140333334Y-52523810D01*
X140285715Y-52714286D01*
X140238096Y-52809524D01*
X140142858Y-52904762D01*
X140000000Y-52952381D01*
X139761905Y-52952381D01*
X140714286Y-52047619D02*
X140761905Y-52000000D01*
X140857143Y-51952381D01*
X141095239Y-51952381D01*
X141190477Y-52000000D01*
X141238096Y-52047619D01*
X141285715Y-52142857D01*
X141285715Y-52238095D01*
X141238096Y-52380952D01*
X140666667Y-52952381D01*
X141285715Y-52952381D01*
X139761905Y-54952381D02*
X139761905Y-53952381D01*
X140000000Y-53952381D01*
X140142858Y-54000000D01*
X140238096Y-54095238D01*
X140285715Y-54190476D01*
X140333334Y-54380952D01*
X140333334Y-54523810D01*
X140285715Y-54714286D01*
X140238096Y-54809524D01*
X140142858Y-54904762D01*
X140000000Y-54952381D01*
X139761905Y-54952381D01*
X140666667Y-53952381D02*
X141285715Y-53952381D01*
X140952381Y-54333333D01*
X141095239Y-54333333D01*
X141190477Y-54380952D01*
X141238096Y-54428571D01*
X141285715Y-54523810D01*
X141285715Y-54761905D01*
X141238096Y-54857143D01*
X141190477Y-54904762D01*
X141095239Y-54952381D01*
X140809524Y-54952381D01*
X140714286Y-54904762D01*
X140666667Y-54857143D01*
X129333334Y-50952381D02*
X129000000Y-50476190D01*
X128761905Y-50952381D02*
X128761905Y-49952381D01*
X129142858Y-49952381D01*
X129238096Y-50000000D01*
X129285715Y-50047619D01*
X129333334Y-50142857D01*
X129333334Y-50285714D01*
X129285715Y-50380952D01*
X129238096Y-50428571D01*
X129142858Y-50476190D01*
X128761905Y-50476190D01*
X130285715Y-50952381D02*
X129714286Y-50952381D01*
X130000000Y-50952381D02*
X130000000Y-49952381D01*
X129904762Y-50095238D01*
X129809524Y-50190476D01*
X129714286Y-50238095D01*
X129333334Y-52952381D02*
X129000000Y-52476190D01*
X128761905Y-52952381D02*
X128761905Y-51952381D01*
X129142858Y-51952381D01*
X129238096Y-52000000D01*
X129285715Y-52047619D01*
X129333334Y-52142857D01*
X129333334Y-52285714D01*
X129285715Y-52380952D01*
X129238096Y-52428571D01*
X129142858Y-52476190D01*
X128761905Y-52476190D01*
X129714286Y-52047619D02*
X129761905Y-52000000D01*
X129857143Y-51952381D01*
X130095239Y-51952381D01*
X130190477Y-52000000D01*
X130238096Y-52047619D01*
X130285715Y-52142857D01*
X130285715Y-52238095D01*
X130238096Y-52380952D01*
X129666667Y-52952381D01*
X130285715Y-52952381D01*
X129333334Y-54952381D02*
X129000000Y-54476190D01*
X128761905Y-54952381D02*
X128761905Y-53952381D01*
X129142858Y-53952381D01*
X129238096Y-54000000D01*
X129285715Y-54047619D01*
X129333334Y-54142857D01*
X129333334Y-54285714D01*
X129285715Y-54380952D01*
X129238096Y-54428571D01*
X129142858Y-54476190D01*
X128761905Y-54476190D01*
X129666667Y-53952381D02*
X130285715Y-53952381D01*
X129952381Y-54333333D01*
X130095239Y-54333333D01*
X130190477Y-54380952D01*
X130238096Y-54428571D01*
X130285715Y-54523810D01*
X130285715Y-54761905D01*
X130238096Y-54857143D01*
X130190477Y-54904762D01*
X130095239Y-54952381D01*
X129809524Y-54952381D01*
X129714286Y-54904762D01*
X129666667Y-54857143D01*
X139238095Y-58952381D02*
X139238095Y-59761905D01*
X139285714Y-59857143D01*
X139333333Y-59904762D01*
X139428571Y-59952381D01*
X139619048Y-59952381D01*
X139714286Y-59904762D01*
X139761905Y-59857143D01*
X139809524Y-59761905D01*
X139809524Y-58952381D01*
X140809524Y-59952381D02*
X140238095Y-59952381D01*
X140523809Y-59952381D02*
X140523809Y-58952381D01*
X140428571Y-59095238D01*
X140333333Y-59190476D01*
X140238095Y-59238095D01*
X130476667Y-76624381D02*
X130476667Y-77338667D01*
X130429047Y-77481524D01*
X130333809Y-77576762D01*
X130190952Y-77624381D01*
X130095714Y-77624381D01*
X131476667Y-77624381D02*
X130905238Y-77624381D01*
X131190952Y-77624381D02*
X131190952Y-76624381D01*
X131095714Y-76767238D01*
X131000476Y-76862476D01*
X130905238Y-76910095D01*
X158666667Y-88452381D02*
X158666667Y-89166667D01*
X158619047Y-89309524D01*
X158523809Y-89404762D01*
X158380952Y-89452381D01*
X158285714Y-89452381D01*
X159047619Y-88452381D02*
X159666667Y-88452381D01*
X159333333Y-88833333D01*
X159476191Y-88833333D01*
X159571429Y-88880952D01*
X159619048Y-88928571D01*
X159666667Y-89023810D01*
X159666667Y-89261905D01*
X159619048Y-89357143D01*
X159571429Y-89404762D01*
X159476191Y-89452381D01*
X159190476Y-89452381D01*
X159095238Y-89404762D01*
X159047619Y-89357143D01*
X124126667Y-55796381D02*
X124126667Y-56510667D01*
X124079047Y-56653524D01*
X123983809Y-56748762D01*
X123840952Y-56796381D01*
X123745714Y-56796381D01*
X125031429Y-55796381D02*
X124840952Y-55796381D01*
X124745714Y-55844000D01*
X124698095Y-55891619D01*
X124602857Y-56034476D01*
X124555238Y-56224952D01*
X124555238Y-56605905D01*
X124602857Y-56701143D01*
X124650476Y-56748762D01*
X124745714Y-56796381D01*
X124936191Y-56796381D01*
X125031429Y-56748762D01*
X125079048Y-56701143D01*
X125126667Y-56605905D01*
X125126667Y-56367810D01*
X125079048Y-56272571D01*
X125031429Y-56224952D01*
X124936191Y-56177333D01*
X124745714Y-56177333D01*
X124650476Y-56224952D01*
X124602857Y-56272571D01*
X124555238Y-56367810D01*
X169048667Y-51440762D02*
X169191524Y-51488381D01*
X169429620Y-51488381D01*
X169524858Y-51440762D01*
X169572477Y-51393143D01*
X169620096Y-51297905D01*
X169620096Y-51202667D01*
X169572477Y-51107429D01*
X169524858Y-51059810D01*
X169429620Y-51012190D01*
X169239143Y-50964571D01*
X169143905Y-50916952D01*
X169096286Y-50869333D01*
X169048667Y-50774095D01*
X169048667Y-50678857D01*
X169096286Y-50583619D01*
X169143905Y-50536000D01*
X169239143Y-50488381D01*
X169477239Y-50488381D01*
X169620096Y-50536000D01*
X169953429Y-50488381D02*
X170191524Y-51488381D01*
X170382001Y-50774095D01*
X170572477Y-51488381D01*
X170810572Y-50488381D01*
X171715334Y-51488381D02*
X171143905Y-51488381D01*
X171429619Y-51488381D02*
X171429619Y-50488381D01*
X171334381Y-50631238D01*
X171239143Y-50726476D01*
X171143905Y-50774095D01*
X169048667Y-60076762D02*
X169191524Y-60124381D01*
X169429620Y-60124381D01*
X169524858Y-60076762D01*
X169572477Y-60029143D01*
X169620096Y-59933905D01*
X169620096Y-59838667D01*
X169572477Y-59743429D01*
X169524858Y-59695810D01*
X169429620Y-59648190D01*
X169239143Y-59600571D01*
X169143905Y-59552952D01*
X169096286Y-59505333D01*
X169048667Y-59410095D01*
X169048667Y-59314857D01*
X169096286Y-59219619D01*
X169143905Y-59172000D01*
X169239143Y-59124381D01*
X169477239Y-59124381D01*
X169620096Y-59172000D01*
X169953429Y-59124381D02*
X170191524Y-60124381D01*
X170382001Y-59410095D01*
X170572477Y-60124381D01*
X170810572Y-59124381D01*
X171143905Y-59219619D02*
X171191524Y-59172000D01*
X171286762Y-59124381D01*
X171524858Y-59124381D01*
X171620096Y-59172000D01*
X171667715Y-59219619D01*
X171715334Y-59314857D01*
X171715334Y-59410095D01*
X171667715Y-59552952D01*
X171096286Y-60124381D01*
X171715334Y-60124381D01*
X169048667Y-68712762D02*
X169191524Y-68760381D01*
X169429620Y-68760381D01*
X169524858Y-68712762D01*
X169572477Y-68665143D01*
X169620096Y-68569905D01*
X169620096Y-68474667D01*
X169572477Y-68379429D01*
X169524858Y-68331810D01*
X169429620Y-68284190D01*
X169239143Y-68236571D01*
X169143905Y-68188952D01*
X169096286Y-68141333D01*
X169048667Y-68046095D01*
X169048667Y-67950857D01*
X169096286Y-67855619D01*
X169143905Y-67808000D01*
X169239143Y-67760381D01*
X169477239Y-67760381D01*
X169620096Y-67808000D01*
X169953429Y-67760381D02*
X170191524Y-68760381D01*
X170382001Y-68046095D01*
X170572477Y-68760381D01*
X170810572Y-67760381D01*
X171096286Y-67760381D02*
X171715334Y-67760381D01*
X171382000Y-68141333D01*
X171524858Y-68141333D01*
X171620096Y-68188952D01*
X171667715Y-68236571D01*
X171715334Y-68331810D01*
X171715334Y-68569905D01*
X171667715Y-68665143D01*
X171620096Y-68712762D01*
X171524858Y-68760381D01*
X171239143Y-68760381D01*
X171143905Y-68712762D01*
X171096286Y-68665143D01*
X169048667Y-77348762D02*
X169191524Y-77396381D01*
X169429620Y-77396381D01*
X169524858Y-77348762D01*
X169572477Y-77301143D01*
X169620096Y-77205905D01*
X169620096Y-77110667D01*
X169572477Y-77015429D01*
X169524858Y-76967810D01*
X169429620Y-76920190D01*
X169239143Y-76872571D01*
X169143905Y-76824952D01*
X169096286Y-76777333D01*
X169048667Y-76682095D01*
X169048667Y-76586857D01*
X169096286Y-76491619D01*
X169143905Y-76444000D01*
X169239143Y-76396381D01*
X169477239Y-76396381D01*
X169620096Y-76444000D01*
X169953429Y-76396381D02*
X170191524Y-77396381D01*
X170382001Y-76682095D01*
X170572477Y-77396381D01*
X170810572Y-76396381D01*
X171620096Y-76729714D02*
X171620096Y-77396381D01*
X171382000Y-76348762D02*
X171143905Y-77063048D01*
X171762953Y-77063048D01*
X169048667Y-85984762D02*
X169191524Y-86032381D01*
X169429620Y-86032381D01*
X169524858Y-85984762D01*
X169572477Y-85937143D01*
X169620096Y-85841905D01*
X169620096Y-85746667D01*
X169572477Y-85651429D01*
X169524858Y-85603810D01*
X169429620Y-85556190D01*
X169239143Y-85508571D01*
X169143905Y-85460952D01*
X169096286Y-85413333D01*
X169048667Y-85318095D01*
X169048667Y-85222857D01*
X169096286Y-85127619D01*
X169143905Y-85080000D01*
X169239143Y-85032381D01*
X169477239Y-85032381D01*
X169620096Y-85080000D01*
X169953429Y-85032381D02*
X170191524Y-86032381D01*
X170382001Y-85318095D01*
X170572477Y-86032381D01*
X170810572Y-85032381D01*
X171667715Y-85032381D02*
X171191524Y-85032381D01*
X171143905Y-85508571D01*
X171191524Y-85460952D01*
X171286762Y-85413333D01*
X171524858Y-85413333D01*
X171620096Y-85460952D01*
X171667715Y-85508571D01*
X171715334Y-85603810D01*
X171715334Y-85841905D01*
X171667715Y-85937143D01*
X171620096Y-85984762D01*
X171524858Y-86032381D01*
X171286762Y-86032381D01*
X171191524Y-85984762D01*
X171143905Y-85937143D01*
X125868667Y-69728762D02*
X126011524Y-69776381D01*
X126249620Y-69776381D01*
X126344858Y-69728762D01*
X126392477Y-69681143D01*
X126440096Y-69585905D01*
X126440096Y-69490667D01*
X126392477Y-69395429D01*
X126344858Y-69347810D01*
X126249620Y-69300190D01*
X126059143Y-69252571D01*
X125963905Y-69204952D01*
X125916286Y-69157333D01*
X125868667Y-69062095D01*
X125868667Y-68966857D01*
X125916286Y-68871619D01*
X125963905Y-68824000D01*
X126059143Y-68776381D01*
X126297239Y-68776381D01*
X126440096Y-68824000D01*
X126773429Y-68776381D02*
X127011524Y-69776381D01*
X127202001Y-69062095D01*
X127392477Y-69776381D01*
X127630572Y-68776381D01*
X128440096Y-68776381D02*
X128249619Y-68776381D01*
X128154381Y-68824000D01*
X128106762Y-68871619D01*
X128011524Y-69014476D01*
X127963905Y-69204952D01*
X127963905Y-69585905D01*
X128011524Y-69681143D01*
X128059143Y-69728762D01*
X128154381Y-69776381D01*
X128344858Y-69776381D01*
X128440096Y-69728762D01*
X128487715Y-69681143D01*
X128535334Y-69585905D01*
X128535334Y-69347810D01*
X128487715Y-69252571D01*
X128440096Y-69204952D01*
X128344858Y-69157333D01*
X128154381Y-69157333D01*
X128059143Y-69204952D01*
X128011524Y-69252571D01*
X127963905Y-69347810D01*
M02*
