M48
;DRILL file {KiCad 4.0.7} date 02/24/18 18:12:40
;FORMAT={-:-/ absolute / inch / decimal}
FMAT,2
INCH,TZ
T1C0.016
T2C0.039
%
G90
G05
M72
T1
X5.81Y-2.24
X5.83Y-2.28
X5.87Y-2.32
X5.94Y-2.28
X6.01Y-2.24
T2
X4.88Y-2.48
X4.88Y-2.6572
X4.88Y-2.81
X4.88Y-2.9872
X4.9Y-2.31
X5.1359Y-2.48
X5.1359Y-2.6572
X5.1359Y-2.81
X5.1359Y-2.9872
X5.15Y-3.13
X5.15Y-3.23
X5.15Y-3.33
X5.33Y-2.31
X5.33Y-2.41
X5.33Y-2.51
X5.33Y-2.61
X5.33Y-2.71
X5.33Y-2.81
X5.33Y-2.91
X5.33Y-3.01
X5.33Y-3.11
X5.33Y-3.21
X5.33Y-3.31
X5.33Y-3.41
X5.33Y-3.51
X5.33Y-3.61
X5.47Y-3.61
X5.57Y-3.61
X5.67Y-3.61
X5.77Y-3.61
X5.87Y-3.61
X5.97Y-3.61
X6.07Y-3.61
X6.17Y-3.61
X6.27Y-3.61
X6.41Y-2.01
X6.41Y-2.11
X6.41Y-2.21
X6.41Y-2.31
X6.41Y-2.41
X6.41Y-2.51
X6.41Y-2.61
X6.41Y-2.71
X6.41Y-2.81
X6.41Y-2.91
X6.41Y-3.01
X6.41Y-3.11
X6.41Y-3.21
X6.41Y-3.31
X6.41Y-3.41
X6.41Y-3.51
X6.41Y-3.61
X6.58Y-2.09
X6.58Y-2.2672
X6.58Y-2.43
X6.58Y-2.6072
X6.58Y-2.77
X6.58Y-2.9472
X6.58Y-3.11
X6.58Y-3.2872
X6.58Y-3.45
X6.58Y-3.6272
X6.8359Y-2.09
X6.8359Y-2.2672
X6.8359Y-2.43
X6.8359Y-2.6072
X6.8359Y-2.77
X6.8359Y-2.9472
X6.8359Y-3.11
X6.8359Y-3.2872
X6.8359Y-3.45
X6.8359Y-3.6272
T0
M30
