G04 #@! TF.FileFunction,Copper,L1,Top,Signal*
%FSLAX46Y46*%
G04 Gerber Fmt 4.6, Leading zero omitted, Abs format (unit mm)*
G04 Created by KiCad (PCBNEW 4.0.7) date 02/24/18 18:12:37*
%MOMM*%
%LPD*%
G01*
G04 APERTURE LIST*
%ADD10C,0.100000*%
%ADD11C,1.700000*%
%ADD12R,1.700000X1.700000*%
%ADD13O,1.700000X1.700000*%
%ADD14R,1.500000X1.300000*%
%ADD15R,2.000000X0.800000*%
%ADD16R,0.800000X2.000000*%
%ADD17C,0.600000*%
%ADD18C,0.250000*%
%ADD19C,0.500000*%
%ADD20C,0.254000*%
G04 APERTURE END LIST*
D10*
D11*
X130452000Y-67492000D03*
X123952000Y-67492000D03*
X130452000Y-62992000D03*
X123952000Y-62992000D03*
D12*
X135382000Y-91694000D03*
D13*
X135382000Y-89154000D03*
X135382000Y-86614000D03*
X135382000Y-84074000D03*
X135382000Y-81534000D03*
X135382000Y-78994000D03*
X135382000Y-76454000D03*
X135382000Y-73914000D03*
X135382000Y-71374000D03*
X135382000Y-68834000D03*
X135382000Y-66294000D03*
X135382000Y-63754000D03*
X135382000Y-61214000D03*
X135382000Y-58674000D03*
D12*
X162814000Y-51054000D03*
D13*
X162814000Y-53594000D03*
X162814000Y-56134000D03*
X162814000Y-58674000D03*
X162814000Y-61214000D03*
X162814000Y-63754000D03*
X162814000Y-66294000D03*
X162814000Y-68834000D03*
X162814000Y-71374000D03*
X162814000Y-73914000D03*
X162814000Y-76454000D03*
X162814000Y-78994000D03*
X162814000Y-81534000D03*
X162814000Y-84074000D03*
X162814000Y-86614000D03*
X162814000Y-89154000D03*
X162814000Y-91694000D03*
D14*
X138764000Y-50546000D03*
X136064000Y-50546000D03*
X138764000Y-52578000D03*
X136064000Y-52578000D03*
X138764000Y-54610000D03*
X136064000Y-54610000D03*
X134192000Y-50546000D03*
X131492000Y-50546000D03*
X134192000Y-52578000D03*
X131492000Y-52578000D03*
X134192000Y-54610000D03*
X131492000Y-54610000D03*
D15*
X142748000Y-50250000D03*
X142748000Y-51350000D03*
X142748000Y-52450000D03*
X142748000Y-53550000D03*
X142748000Y-54650000D03*
X142748000Y-55750000D03*
X142748000Y-56850000D03*
X142748000Y-57950000D03*
X142748000Y-59050000D03*
X142748000Y-60150000D03*
X142748000Y-61250000D03*
X142748000Y-62350000D03*
X142748000Y-63450000D03*
X142748000Y-64550000D03*
X142748000Y-65650000D03*
X142748000Y-66750000D03*
X142748000Y-67850000D03*
D16*
X144748000Y-69850000D03*
X145948000Y-69850000D03*
X147148000Y-69850000D03*
X148348000Y-69850000D03*
X149548000Y-69850000D03*
X150748000Y-69850000D03*
X151948000Y-69850000D03*
X153148000Y-69850000D03*
X154348000Y-69850000D03*
D15*
X156248000Y-50250000D03*
X156248000Y-51350000D03*
X156248000Y-52450000D03*
X156248000Y-53550000D03*
X156248000Y-54650000D03*
X156248000Y-55750000D03*
X156248000Y-56850000D03*
X156248000Y-57950000D03*
X156248000Y-59050000D03*
X156248000Y-60150000D03*
X156248000Y-61250000D03*
X156248000Y-62350000D03*
X156248000Y-63450000D03*
X156248000Y-64550000D03*
X156248000Y-65650000D03*
X156248000Y-66750000D03*
X156248000Y-67850000D03*
D12*
X130810000Y-79502000D03*
D13*
X130810000Y-82042000D03*
X130810000Y-84582000D03*
D12*
X159258000Y-91694000D03*
D13*
X156718000Y-91694000D03*
X154178000Y-91694000D03*
X151638000Y-91694000D03*
X149098000Y-91694000D03*
X146558000Y-91694000D03*
X144018000Y-91694000D03*
X141478000Y-91694000D03*
X138938000Y-91694000D03*
D12*
X124460000Y-58674000D03*
D11*
X173632000Y-57586000D03*
X167132000Y-57586000D03*
X173632000Y-53086000D03*
X167132000Y-53086000D03*
X173632000Y-66222000D03*
X167132000Y-66222000D03*
X173632000Y-61722000D03*
X167132000Y-61722000D03*
X173632000Y-74858000D03*
X167132000Y-74858000D03*
X173632000Y-70358000D03*
X167132000Y-70358000D03*
X173632000Y-83494000D03*
X167132000Y-83494000D03*
X173632000Y-78994000D03*
X167132000Y-78994000D03*
X173632000Y-92130000D03*
X167132000Y-92130000D03*
X173632000Y-87630000D03*
X167132000Y-87630000D03*
X130452000Y-75874000D03*
X123952000Y-75874000D03*
X130452000Y-71374000D03*
X123952000Y-71374000D03*
D17*
X149098000Y-58928000D03*
X148082000Y-57912000D03*
X147574000Y-56896000D03*
X152654000Y-56896000D03*
X150876000Y-57912000D03*
D18*
X172720000Y-75620000D02*
X172720000Y-75692000D01*
X138764000Y-50546000D02*
X140970000Y-50546000D01*
X141266000Y-50250000D02*
X142748000Y-50250000D01*
X140970000Y-50546000D02*
X141266000Y-50250000D01*
X134192000Y-50546000D02*
X136064000Y-50546000D01*
X138764000Y-52578000D02*
X140208000Y-52578000D01*
X141436000Y-51350000D02*
X142748000Y-51350000D01*
X140208000Y-52578000D02*
X141436000Y-51350000D01*
X134192000Y-52578000D02*
X136064000Y-52578000D01*
X138764000Y-54610000D02*
X139446000Y-54610000D01*
X139446000Y-54610000D02*
X141606000Y-52450000D01*
X141606000Y-52450000D02*
X142748000Y-52450000D01*
X134192000Y-54610000D02*
X136064000Y-54610000D01*
D19*
X135382000Y-78994000D02*
X131318000Y-78994000D01*
X131318000Y-78994000D02*
X130810000Y-79502000D01*
X135382000Y-78994000D02*
X137414000Y-78994000D01*
X141358000Y-62350000D02*
X142748000Y-62350000D01*
X138176000Y-65532000D02*
X141358000Y-62350000D01*
X138176000Y-78232000D02*
X138176000Y-65532000D01*
X137414000Y-78994000D02*
X138176000Y-78232000D01*
D18*
X131492000Y-54610000D02*
X131492000Y-52578000D01*
X130810000Y-82042000D02*
X127508000Y-82042000D01*
X131492000Y-56722000D02*
X131492000Y-54610000D01*
X126492000Y-61722000D02*
X131492000Y-56722000D01*
X126492000Y-81026000D02*
X126492000Y-61722000D01*
X127508000Y-82042000D02*
X126492000Y-81026000D01*
X131492000Y-50546000D02*
X131492000Y-52578000D01*
D19*
X135382000Y-84074000D02*
X131318000Y-84074000D01*
X131318000Y-84074000D02*
X130810000Y-84582000D01*
X135382000Y-84074000D02*
X138176000Y-84074000D01*
X141190000Y-64550000D02*
X142748000Y-64550000D01*
X139378998Y-66361002D02*
X141190000Y-64550000D01*
X139378998Y-82871002D02*
X139378998Y-66361002D01*
X138176000Y-84074000D02*
X139378998Y-82871002D01*
X135382000Y-91694000D02*
X136398000Y-91694000D01*
X142748000Y-82804000D02*
X142748000Y-67850000D01*
X137922000Y-87630000D02*
X142748000Y-82804000D01*
X137922000Y-90170000D02*
X137922000Y-87630000D01*
X136398000Y-91694000D02*
X137922000Y-90170000D01*
X156248000Y-50250000D02*
X162010000Y-50250000D01*
X162010000Y-50250000D02*
X162814000Y-51054000D01*
X135382000Y-89154000D02*
X135382000Y-88900000D01*
X135382000Y-88900000D02*
X140716000Y-83566000D01*
X140716000Y-83566000D02*
X140716000Y-67310000D01*
X140716000Y-67310000D02*
X141276000Y-66750000D01*
X141276000Y-66750000D02*
X142748000Y-66750000D01*
D18*
X135382000Y-76454000D02*
X136330998Y-76454000D01*
X141188000Y-61250000D02*
X142748000Y-61250000D01*
X137600998Y-64837002D02*
X141188000Y-61250000D01*
X137600998Y-75184000D02*
X137600998Y-64837002D01*
X136330998Y-76454000D02*
X137600998Y-75184000D01*
X135382000Y-73914000D02*
X136398000Y-73914000D01*
X140764000Y-60150000D02*
X142748000Y-60150000D01*
X136906000Y-64008000D02*
X140764000Y-60150000D01*
X136906000Y-73406000D02*
X136906000Y-64008000D01*
X136398000Y-73914000D02*
X136906000Y-73406000D01*
X148976000Y-59050000D02*
X142748000Y-59050000D01*
X149098000Y-58928000D02*
X148976000Y-59050000D01*
X148044000Y-57950000D02*
X142748000Y-57950000D01*
X148082000Y-57912000D02*
X148044000Y-57950000D01*
X147528000Y-56850000D02*
X142748000Y-56850000D01*
X147574000Y-56896000D02*
X147528000Y-56850000D01*
X135382000Y-63754000D02*
X135890000Y-63754000D01*
X135890000Y-63754000D02*
X141224000Y-58420000D01*
X141224000Y-58420000D02*
X141224000Y-55880000D01*
X141224000Y-55880000D02*
X141354000Y-55750000D01*
X141354000Y-55750000D02*
X142748000Y-55750000D01*
X135382000Y-61214000D02*
X137414000Y-61214000D01*
X141184000Y-54650000D02*
X142748000Y-54650000D01*
X140716000Y-55118000D02*
X141184000Y-54650000D01*
X140716000Y-57912000D02*
X140716000Y-55118000D01*
X137414000Y-61214000D02*
X140716000Y-57912000D01*
X135382000Y-58674000D02*
X138938000Y-58674000D01*
X141522000Y-53550000D02*
X142748000Y-53550000D01*
X140265998Y-54806002D02*
X141522000Y-53550000D01*
X140265998Y-57346002D02*
X140265998Y-54806002D01*
X138938000Y-58674000D02*
X140265998Y-57346002D01*
X159258000Y-91694000D02*
X159258000Y-86614000D01*
X154348000Y-81704000D02*
X154348000Y-69850000D01*
X159258000Y-86614000D02*
X154348000Y-81704000D01*
X156718000Y-91694000D02*
X156718000Y-86106000D01*
X153148000Y-82536000D02*
X153148000Y-69850000D01*
X156718000Y-86106000D02*
X153148000Y-82536000D01*
X154178000Y-91694000D02*
X154178000Y-85344000D01*
X151948000Y-83114000D02*
X151948000Y-69850000D01*
X154178000Y-85344000D02*
X151948000Y-83114000D01*
X151638000Y-91694000D02*
X151638000Y-84328000D01*
X150748000Y-83438000D02*
X150748000Y-69850000D01*
X151638000Y-84328000D02*
X150748000Y-83438000D01*
X149548000Y-69850000D02*
X149548000Y-91244000D01*
X149548000Y-91244000D02*
X149098000Y-91694000D01*
X148348000Y-69850000D02*
X148348000Y-83554000D01*
X146558000Y-85344000D02*
X146558000Y-91694000D01*
X148348000Y-83554000D02*
X146558000Y-85344000D01*
X147148000Y-69850000D02*
X147148000Y-83230000D01*
X144018000Y-86360000D02*
X144018000Y-91694000D01*
X147148000Y-83230000D02*
X144018000Y-86360000D01*
X145948000Y-69850000D02*
X145948000Y-82398000D01*
X141478000Y-86868000D02*
X141478000Y-91694000D01*
X145948000Y-82398000D02*
X141478000Y-86868000D01*
X156248000Y-54650000D02*
X157520000Y-54650000D01*
X161290000Y-59690000D02*
X162814000Y-61214000D01*
X161290000Y-58420000D02*
X161290000Y-59690000D01*
X157520000Y-54650000D02*
X161290000Y-58420000D01*
X156248000Y-53550000D02*
X157690000Y-53550000D01*
X157690000Y-53550000D02*
X162814000Y-58674000D01*
X156248000Y-52450000D02*
X159130000Y-52450000D01*
X159130000Y-52450000D02*
X162814000Y-56134000D01*
X156248000Y-51350000D02*
X160570000Y-51350000D01*
X160570000Y-51350000D02*
X162814000Y-53594000D01*
X162814000Y-63754000D02*
X162814000Y-62992000D01*
X162814000Y-62992000D02*
X157988000Y-58166000D01*
X157988000Y-58166000D02*
X157988000Y-56134000D01*
X157988000Y-56134000D02*
X157604000Y-55750000D01*
X157604000Y-55750000D02*
X156248000Y-55750000D01*
X152700000Y-56850000D02*
X156248000Y-56850000D01*
X152654000Y-56896000D02*
X152700000Y-56850000D01*
X150914000Y-57950000D02*
X156248000Y-57950000D01*
X150876000Y-57912000D02*
X150914000Y-57950000D01*
X162814000Y-71374000D02*
X161290000Y-71374000D01*
X158110000Y-59050000D02*
X156248000Y-59050000D01*
X161290000Y-62230000D02*
X158110000Y-59050000D01*
X161290000Y-71374000D02*
X161290000Y-62230000D01*
X162814000Y-73914000D02*
X162306000Y-73914000D01*
X162306000Y-73914000D02*
X160782000Y-72390000D01*
X160782000Y-72390000D02*
X160782000Y-63500000D01*
X160782000Y-63500000D02*
X157432000Y-60150000D01*
X157432000Y-60150000D02*
X156248000Y-60150000D01*
X162814000Y-76454000D02*
X160782000Y-76454000D01*
X157770000Y-61250000D02*
X156248000Y-61250000D01*
X160274000Y-63754000D02*
X157770000Y-61250000D01*
X160274000Y-75946000D02*
X160274000Y-63754000D01*
X160782000Y-76454000D02*
X160274000Y-75946000D01*
X162814000Y-78994000D02*
X160724002Y-78994000D01*
X157600000Y-62350000D02*
X156248000Y-62350000D01*
X159766000Y-64516000D02*
X157600000Y-62350000D01*
X159766000Y-78035998D02*
X159766000Y-64516000D01*
X160724002Y-78994000D02*
X159766000Y-78035998D01*
X162814000Y-81534000D02*
X161036000Y-81534000D01*
X161036000Y-81534000D02*
X159258000Y-79756000D01*
X159258000Y-79756000D02*
X159258000Y-64770000D01*
X159258000Y-64770000D02*
X157938000Y-63450000D01*
X157938000Y-63450000D02*
X156248000Y-63450000D01*
X156248000Y-64550000D02*
X157260000Y-64550000D01*
X158750000Y-80010000D02*
X162814000Y-84074000D01*
X158750000Y-66040000D02*
X158750000Y-80010000D01*
X157260000Y-64550000D02*
X158750000Y-66040000D01*
X162814000Y-86614000D02*
X162052000Y-86614000D01*
X162052000Y-86614000D02*
X158242000Y-82804000D01*
X158242000Y-82804000D02*
X158242000Y-66548000D01*
X158242000Y-66548000D02*
X157344000Y-65650000D01*
X157344000Y-65650000D02*
X156248000Y-65650000D01*
X156248000Y-66750000D02*
X157682000Y-66750000D01*
X161036000Y-89154000D02*
X162814000Y-89154000D01*
X160274000Y-88392000D02*
X161036000Y-89154000D01*
X160274000Y-85598000D02*
X160274000Y-88392000D01*
X157734000Y-83058000D02*
X160274000Y-85598000D01*
X157734000Y-66802000D02*
X157734000Y-83058000D01*
X157682000Y-66750000D02*
X157734000Y-66802000D01*
X162814000Y-91694000D02*
X162306000Y-91694000D01*
X162306000Y-91694000D02*
X159766000Y-89154000D01*
X159766000Y-89154000D02*
X159766000Y-85852000D01*
X159766000Y-85852000D02*
X156248000Y-82334000D01*
X156248000Y-82334000D02*
X156248000Y-67850000D01*
X123952000Y-62992000D02*
X123952000Y-67492000D01*
X142748000Y-63450000D02*
X141476824Y-63450000D01*
X137160000Y-81534000D02*
X135382000Y-81534000D01*
X138803996Y-79890004D02*
X137160000Y-81534000D01*
X138803996Y-66122828D02*
X138803996Y-79890004D01*
X141476824Y-63450000D02*
X138803996Y-66122828D01*
X135382000Y-86614000D02*
X136652000Y-86614000D01*
X141360000Y-65650000D02*
X142748000Y-65650000D01*
X139954000Y-67056000D02*
X141360000Y-65650000D01*
X139954000Y-83312000D02*
X139954000Y-67056000D01*
X136652000Y-86614000D02*
X139954000Y-83312000D01*
D19*
X144748000Y-69850000D02*
X144748000Y-82074000D01*
X138938000Y-87884000D02*
X138938000Y-91694000D01*
X144748000Y-82074000D02*
X138938000Y-87884000D01*
D20*
G36*
X130094560Y-49896000D02*
X130094560Y-51196000D01*
X130138838Y-51431317D01*
X130223225Y-51562457D01*
X130145569Y-51676110D01*
X130094560Y-51928000D01*
X130094560Y-53228000D01*
X130138838Y-53463317D01*
X130223225Y-53594457D01*
X130145569Y-53708110D01*
X130094560Y-53960000D01*
X130094560Y-55260000D01*
X130138838Y-55495317D01*
X130277910Y-55711441D01*
X130490110Y-55856431D01*
X130732000Y-55905415D01*
X130732000Y-56407198D01*
X125954599Y-61184599D01*
X125789852Y-61431161D01*
X125732000Y-61722000D01*
X125732000Y-81026000D01*
X125789852Y-81316839D01*
X125954599Y-81563401D01*
X126970599Y-82579401D01*
X127217161Y-82744148D01*
X127508000Y-82802000D01*
X129537046Y-82802000D01*
X129730853Y-83092054D01*
X130060026Y-83312000D01*
X129730853Y-83531946D01*
X129408946Y-84013715D01*
X129295907Y-84582000D01*
X129408946Y-85150285D01*
X129730853Y-85632054D01*
X130212622Y-85953961D01*
X130780907Y-86067000D01*
X130839093Y-86067000D01*
X131407378Y-85953961D01*
X131889147Y-85632054D01*
X132211054Y-85150285D01*
X132249103Y-84959000D01*
X134192568Y-84959000D01*
X134302853Y-85124054D01*
X134632026Y-85344000D01*
X134302853Y-85563946D01*
X133980946Y-86045715D01*
X133867907Y-86614000D01*
X133980946Y-87182285D01*
X134302853Y-87664054D01*
X134632026Y-87884000D01*
X134302853Y-88103946D01*
X133980946Y-88585715D01*
X133867907Y-89154000D01*
X133980946Y-89722285D01*
X134302853Y-90204054D01*
X134346777Y-90233403D01*
X134172302Y-90305673D01*
X133993673Y-90484301D01*
X133897000Y-90717690D01*
X133897000Y-91408250D01*
X134055750Y-91567000D01*
X135255000Y-91567000D01*
X135255000Y-91547000D01*
X135509000Y-91547000D01*
X135509000Y-91567000D01*
X136708250Y-91567000D01*
X136867000Y-91408250D01*
X136867000Y-90717690D01*
X136770327Y-90484301D01*
X136591698Y-90305673D01*
X136417223Y-90233403D01*
X136461147Y-90204054D01*
X136783054Y-89722285D01*
X136896093Y-89154000D01*
X136810398Y-88723182D01*
X141341787Y-84191792D01*
X141341790Y-84191790D01*
X141533633Y-83904675D01*
X141556308Y-83790681D01*
X141601001Y-83566000D01*
X141601000Y-83565995D01*
X141601000Y-68876429D01*
X141621691Y-68885000D01*
X142462250Y-68885000D01*
X142621000Y-68726250D01*
X142621000Y-67977000D01*
X142601000Y-67977000D01*
X142601000Y-67797440D01*
X143748000Y-67797440D01*
X143983317Y-67753162D01*
X144030190Y-67723000D01*
X144224250Y-67723000D01*
X144383000Y-67564250D01*
X144383000Y-67323690D01*
X144367732Y-67286829D01*
X144395440Y-67150000D01*
X144395440Y-66350000D01*
X144366179Y-66194493D01*
X144395440Y-66050000D01*
X144395440Y-65250000D01*
X144366179Y-65094493D01*
X144395440Y-64950000D01*
X144395440Y-64150000D01*
X144366179Y-63994493D01*
X144395440Y-63850000D01*
X144395440Y-63050000D01*
X144366179Y-62894493D01*
X144395440Y-62750000D01*
X144395440Y-61950000D01*
X144366179Y-61794493D01*
X144395440Y-61650000D01*
X144395440Y-60850000D01*
X144366179Y-60694493D01*
X144395440Y-60550000D01*
X144395440Y-59810000D01*
X148783954Y-59810000D01*
X148911201Y-59862838D01*
X149283167Y-59863162D01*
X149626943Y-59721117D01*
X149890192Y-59458327D01*
X150032838Y-59114799D01*
X150033162Y-58742833D01*
X149891117Y-58399057D01*
X149628327Y-58135808D01*
X149284799Y-57993162D01*
X149016930Y-57992929D01*
X149017162Y-57726833D01*
X148875117Y-57383057D01*
X148612327Y-57119808D01*
X148508843Y-57076838D01*
X148509162Y-56710833D01*
X148367117Y-56367057D01*
X148104327Y-56103808D01*
X147760799Y-55961162D01*
X147388833Y-55960838D01*
X147076236Y-56090000D01*
X144395440Y-56090000D01*
X144395440Y-55350000D01*
X144366179Y-55194493D01*
X144395440Y-55050000D01*
X144395440Y-54250000D01*
X144366179Y-54094493D01*
X144395440Y-53950000D01*
X144395440Y-53150000D01*
X144366179Y-52994493D01*
X144395440Y-52850000D01*
X144395440Y-52050000D01*
X144366179Y-51894493D01*
X144395440Y-51750000D01*
X144395440Y-50950000D01*
X144366179Y-50794493D01*
X144395440Y-50650000D01*
X144395440Y-49850000D01*
X144369097Y-49710000D01*
X154618671Y-49710000D01*
X154613000Y-49723690D01*
X154613000Y-49964250D01*
X154771750Y-50123000D01*
X156121000Y-50123000D01*
X156121000Y-50103000D01*
X156375000Y-50103000D01*
X156375000Y-50123000D01*
X157724250Y-50123000D01*
X157883000Y-49964250D01*
X157883000Y-49723690D01*
X157877329Y-49710000D01*
X161559975Y-49710000D01*
X161425673Y-49844301D01*
X161329000Y-50077690D01*
X161329000Y-50768250D01*
X161487748Y-50926998D01*
X161329000Y-50926998D01*
X161329000Y-51034198D01*
X161107401Y-50812599D01*
X160860839Y-50647852D01*
X160570000Y-50590000D01*
X157883000Y-50590000D01*
X157883000Y-50535750D01*
X157724250Y-50377000D01*
X157534182Y-50377000D01*
X157499890Y-50353569D01*
X157248000Y-50302560D01*
X155248000Y-50302560D01*
X155012683Y-50346838D01*
X154965810Y-50377000D01*
X154771750Y-50377000D01*
X154613000Y-50535750D01*
X154613000Y-50776310D01*
X154628268Y-50813171D01*
X154600560Y-50950000D01*
X154600560Y-51750000D01*
X154629821Y-51905507D01*
X154600560Y-52050000D01*
X154600560Y-52850000D01*
X154629821Y-53005507D01*
X154600560Y-53150000D01*
X154600560Y-53950000D01*
X154629821Y-54105507D01*
X154600560Y-54250000D01*
X154600560Y-55050000D01*
X154629821Y-55205507D01*
X154600560Y-55350000D01*
X154600560Y-56090000D01*
X153151074Y-56090000D01*
X152840799Y-55961162D01*
X152468833Y-55960838D01*
X152125057Y-56102883D01*
X151861808Y-56365673D01*
X151719162Y-56709201D01*
X151718838Y-57081167D01*
X151763807Y-57190000D01*
X151476397Y-57190000D01*
X151406327Y-57119808D01*
X151062799Y-56977162D01*
X150690833Y-56976838D01*
X150347057Y-57118883D01*
X150083808Y-57381673D01*
X149941162Y-57725201D01*
X149940838Y-58097167D01*
X150082883Y-58440943D01*
X150345673Y-58704192D01*
X150689201Y-58846838D01*
X151061167Y-58847162D01*
X151393125Y-58710000D01*
X154600560Y-58710000D01*
X154600560Y-59450000D01*
X154629821Y-59605507D01*
X154600560Y-59750000D01*
X154600560Y-60550000D01*
X154629821Y-60705507D01*
X154600560Y-60850000D01*
X154600560Y-61650000D01*
X154629821Y-61805507D01*
X154600560Y-61950000D01*
X154600560Y-62750000D01*
X154629821Y-62905507D01*
X154600560Y-63050000D01*
X154600560Y-63850000D01*
X154629821Y-64005507D01*
X154600560Y-64150000D01*
X154600560Y-64950000D01*
X154629821Y-65105507D01*
X154600560Y-65250000D01*
X154600560Y-66050000D01*
X154629821Y-66205507D01*
X154600560Y-66350000D01*
X154600560Y-67150000D01*
X154629821Y-67305507D01*
X154600560Y-67450000D01*
X154600560Y-68202560D01*
X153948000Y-68202560D01*
X153740658Y-68241574D01*
X153548000Y-68202560D01*
X152748000Y-68202560D01*
X152540658Y-68241574D01*
X152348000Y-68202560D01*
X151548000Y-68202560D01*
X151340658Y-68241574D01*
X151148000Y-68202560D01*
X150348000Y-68202560D01*
X150140658Y-68241574D01*
X149948000Y-68202560D01*
X149148000Y-68202560D01*
X148940658Y-68241574D01*
X148748000Y-68202560D01*
X147948000Y-68202560D01*
X147740658Y-68241574D01*
X147548000Y-68202560D01*
X146748000Y-68202560D01*
X146540658Y-68241574D01*
X146348000Y-68202560D01*
X145548000Y-68202560D01*
X145340658Y-68241574D01*
X145148000Y-68202560D01*
X144383000Y-68202560D01*
X144383000Y-68135750D01*
X144224250Y-67977000D01*
X142875000Y-67977000D01*
X142875000Y-68726250D01*
X143033750Y-68885000D01*
X143700560Y-68885000D01*
X143700560Y-70850000D01*
X143744838Y-71085317D01*
X143863000Y-71268946D01*
X143863000Y-81707421D01*
X138312210Y-87258210D01*
X138120367Y-87545325D01*
X138120367Y-87545326D01*
X138052999Y-87884000D01*
X138053000Y-87884005D01*
X138053000Y-90504568D01*
X137887946Y-90614853D01*
X137566039Y-91096622D01*
X137453000Y-91664907D01*
X137453000Y-91723093D01*
X137566039Y-92291378D01*
X137887946Y-92773147D01*
X138369715Y-93095054D01*
X138938000Y-93208093D01*
X139506285Y-93095054D01*
X139988054Y-92773147D01*
X140208000Y-92443974D01*
X140427946Y-92773147D01*
X140909715Y-93095054D01*
X141478000Y-93208093D01*
X142046285Y-93095054D01*
X142528054Y-92773147D01*
X142748000Y-92443974D01*
X142967946Y-92773147D01*
X143449715Y-93095054D01*
X144018000Y-93208093D01*
X144586285Y-93095054D01*
X145068054Y-92773147D01*
X145288000Y-92443974D01*
X145507946Y-92773147D01*
X145989715Y-93095054D01*
X146558000Y-93208093D01*
X147126285Y-93095054D01*
X147608054Y-92773147D01*
X147828000Y-92443974D01*
X148047946Y-92773147D01*
X148529715Y-93095054D01*
X149098000Y-93208093D01*
X149666285Y-93095054D01*
X150148054Y-92773147D01*
X150368000Y-92443974D01*
X150587946Y-92773147D01*
X151069715Y-93095054D01*
X151638000Y-93208093D01*
X152206285Y-93095054D01*
X152688054Y-92773147D01*
X152908000Y-92443974D01*
X153127946Y-92773147D01*
X153609715Y-93095054D01*
X154178000Y-93208093D01*
X154746285Y-93095054D01*
X155228054Y-92773147D01*
X155448000Y-92443974D01*
X155667946Y-92773147D01*
X156149715Y-93095054D01*
X156718000Y-93208093D01*
X157286285Y-93095054D01*
X157768054Y-92773147D01*
X157795850Y-92731548D01*
X157804838Y-92779317D01*
X157943910Y-92995441D01*
X158156110Y-93140431D01*
X158408000Y-93191440D01*
X160108000Y-93191440D01*
X160343317Y-93147162D01*
X160559441Y-93008090D01*
X160704431Y-92795890D01*
X160755440Y-92544000D01*
X160755440Y-91218242D01*
X161316968Y-91779770D01*
X161412946Y-92262285D01*
X161734853Y-92744054D01*
X162216622Y-93065961D01*
X162784907Y-93179000D01*
X162843093Y-93179000D01*
X163411378Y-93065961D01*
X163893147Y-92744054D01*
X164106940Y-92424089D01*
X165646743Y-92424089D01*
X165872344Y-92970086D01*
X166289717Y-93388188D01*
X166835319Y-93614742D01*
X167426089Y-93615257D01*
X167972086Y-93389656D01*
X168390188Y-92972283D01*
X168616742Y-92426681D01*
X168616744Y-92424089D01*
X172146743Y-92424089D01*
X172372344Y-92970086D01*
X172789717Y-93388188D01*
X173335319Y-93614742D01*
X173926089Y-93615257D01*
X174472086Y-93389656D01*
X174890188Y-92972283D01*
X175116742Y-92426681D01*
X175117257Y-91835911D01*
X174891656Y-91289914D01*
X174474283Y-90871812D01*
X173928681Y-90645258D01*
X173337911Y-90644743D01*
X172791914Y-90870344D01*
X172373812Y-91287717D01*
X172147258Y-91833319D01*
X172146743Y-92424089D01*
X168616744Y-92424089D01*
X168617257Y-91835911D01*
X168391656Y-91289914D01*
X167974283Y-90871812D01*
X167428681Y-90645258D01*
X166837911Y-90644743D01*
X166291914Y-90870344D01*
X165873812Y-91287717D01*
X165647258Y-91833319D01*
X165646743Y-92424089D01*
X164106940Y-92424089D01*
X164215054Y-92262285D01*
X164328093Y-91694000D01*
X164215054Y-91125715D01*
X163893147Y-90643946D01*
X163563974Y-90424000D01*
X163893147Y-90204054D01*
X164215054Y-89722285D01*
X164328093Y-89154000D01*
X164215054Y-88585715D01*
X163893147Y-88103946D01*
X163623972Y-87924089D01*
X165646743Y-87924089D01*
X165872344Y-88470086D01*
X166289717Y-88888188D01*
X166835319Y-89114742D01*
X167426089Y-89115257D01*
X167972086Y-88889656D01*
X168390188Y-88472283D01*
X168616742Y-87926681D01*
X168616744Y-87924089D01*
X172146743Y-87924089D01*
X172372344Y-88470086D01*
X172789717Y-88888188D01*
X173335319Y-89114742D01*
X173926089Y-89115257D01*
X174472086Y-88889656D01*
X174890188Y-88472283D01*
X175116742Y-87926681D01*
X175117257Y-87335911D01*
X174891656Y-86789914D01*
X174474283Y-86371812D01*
X173928681Y-86145258D01*
X173337911Y-86144743D01*
X172791914Y-86370344D01*
X172373812Y-86787717D01*
X172147258Y-87333319D01*
X172146743Y-87924089D01*
X168616744Y-87924089D01*
X168617257Y-87335911D01*
X168391656Y-86789914D01*
X167974283Y-86371812D01*
X167428681Y-86145258D01*
X166837911Y-86144743D01*
X166291914Y-86370344D01*
X165873812Y-86787717D01*
X165647258Y-87333319D01*
X165646743Y-87924089D01*
X163623972Y-87924089D01*
X163563974Y-87884000D01*
X163893147Y-87664054D01*
X164215054Y-87182285D01*
X164328093Y-86614000D01*
X164215054Y-86045715D01*
X163893147Y-85563946D01*
X163563974Y-85344000D01*
X163893147Y-85124054D01*
X164215054Y-84642285D01*
X164328093Y-84074000D01*
X164271222Y-83788089D01*
X165646743Y-83788089D01*
X165872344Y-84334086D01*
X166289717Y-84752188D01*
X166835319Y-84978742D01*
X167426089Y-84979257D01*
X167972086Y-84753656D01*
X168390188Y-84336283D01*
X168616742Y-83790681D01*
X168616744Y-83788089D01*
X172146743Y-83788089D01*
X172372344Y-84334086D01*
X172789717Y-84752188D01*
X173335319Y-84978742D01*
X173926089Y-84979257D01*
X174472086Y-84753656D01*
X174890188Y-84336283D01*
X175116742Y-83790681D01*
X175117257Y-83199911D01*
X174891656Y-82653914D01*
X174474283Y-82235812D01*
X173928681Y-82009258D01*
X173337911Y-82008743D01*
X172791914Y-82234344D01*
X172373812Y-82651717D01*
X172147258Y-83197319D01*
X172146743Y-83788089D01*
X168616744Y-83788089D01*
X168617257Y-83199911D01*
X168391656Y-82653914D01*
X167974283Y-82235812D01*
X167428681Y-82009258D01*
X166837911Y-82008743D01*
X166291914Y-82234344D01*
X165873812Y-82651717D01*
X165647258Y-83197319D01*
X165646743Y-83788089D01*
X164271222Y-83788089D01*
X164215054Y-83505715D01*
X163893147Y-83023946D01*
X163563974Y-82804000D01*
X163893147Y-82584054D01*
X164215054Y-82102285D01*
X164328093Y-81534000D01*
X164215054Y-80965715D01*
X163893147Y-80483946D01*
X163563974Y-80264000D01*
X163893147Y-80044054D01*
X164215054Y-79562285D01*
X164269595Y-79288089D01*
X165646743Y-79288089D01*
X165872344Y-79834086D01*
X166289717Y-80252188D01*
X166835319Y-80478742D01*
X167426089Y-80479257D01*
X167972086Y-80253656D01*
X168390188Y-79836283D01*
X168616742Y-79290681D01*
X168616744Y-79288089D01*
X172146743Y-79288089D01*
X172372344Y-79834086D01*
X172789717Y-80252188D01*
X173335319Y-80478742D01*
X173926089Y-80479257D01*
X174472086Y-80253656D01*
X174890188Y-79836283D01*
X175116742Y-79290681D01*
X175117257Y-78699911D01*
X174891656Y-78153914D01*
X174474283Y-77735812D01*
X173928681Y-77509258D01*
X173337911Y-77508743D01*
X172791914Y-77734344D01*
X172373812Y-78151717D01*
X172147258Y-78697319D01*
X172146743Y-79288089D01*
X168616744Y-79288089D01*
X168617257Y-78699911D01*
X168391656Y-78153914D01*
X167974283Y-77735812D01*
X167428681Y-77509258D01*
X166837911Y-77508743D01*
X166291914Y-77734344D01*
X165873812Y-78151717D01*
X165647258Y-78697319D01*
X165646743Y-79288089D01*
X164269595Y-79288089D01*
X164328093Y-78994000D01*
X164215054Y-78425715D01*
X163893147Y-77943946D01*
X163563974Y-77724000D01*
X163893147Y-77504054D01*
X164215054Y-77022285D01*
X164328093Y-76454000D01*
X164215054Y-75885715D01*
X163893147Y-75403946D01*
X163563974Y-75184000D01*
X163611732Y-75152089D01*
X165646743Y-75152089D01*
X165872344Y-75698086D01*
X166289717Y-76116188D01*
X166835319Y-76342742D01*
X167426089Y-76343257D01*
X167972086Y-76117656D01*
X168390188Y-75700283D01*
X168423524Y-75620000D01*
X171960000Y-75620000D01*
X171960000Y-75692000D01*
X172017852Y-75982839D01*
X172182599Y-76229401D01*
X172429161Y-76394148D01*
X172720000Y-76452000D01*
X173010839Y-76394148D01*
X173182650Y-76279348D01*
X173335319Y-76342742D01*
X173926089Y-76343257D01*
X174472086Y-76117656D01*
X174890188Y-75700283D01*
X175116742Y-75154681D01*
X175117257Y-74563911D01*
X174891656Y-74017914D01*
X174474283Y-73599812D01*
X173928681Y-73373258D01*
X173337911Y-73372743D01*
X172791914Y-73598344D01*
X172373812Y-74015717D01*
X172147258Y-74561319D01*
X172146757Y-75136241D01*
X172017852Y-75329161D01*
X171960000Y-75620000D01*
X168423524Y-75620000D01*
X168616742Y-75154681D01*
X168617257Y-74563911D01*
X168391656Y-74017914D01*
X167974283Y-73599812D01*
X167428681Y-73373258D01*
X166837911Y-73372743D01*
X166291914Y-73598344D01*
X165873812Y-74015717D01*
X165647258Y-74561319D01*
X165646743Y-75152089D01*
X163611732Y-75152089D01*
X163893147Y-74964054D01*
X164215054Y-74482285D01*
X164328093Y-73914000D01*
X164215054Y-73345715D01*
X163893147Y-72863946D01*
X163563974Y-72644000D01*
X163893147Y-72424054D01*
X164215054Y-71942285D01*
X164328093Y-71374000D01*
X164215054Y-70805715D01*
X164112405Y-70652089D01*
X165646743Y-70652089D01*
X165872344Y-71198086D01*
X166289717Y-71616188D01*
X166835319Y-71842742D01*
X167426089Y-71843257D01*
X167972086Y-71617656D01*
X168390188Y-71200283D01*
X168616742Y-70654681D01*
X168616744Y-70652089D01*
X172146743Y-70652089D01*
X172372344Y-71198086D01*
X172789717Y-71616188D01*
X173335319Y-71842742D01*
X173926089Y-71843257D01*
X174472086Y-71617656D01*
X174890188Y-71200283D01*
X175116742Y-70654681D01*
X175117257Y-70063911D01*
X174891656Y-69517914D01*
X174474283Y-69099812D01*
X173928681Y-68873258D01*
X173337911Y-68872743D01*
X172791914Y-69098344D01*
X172373812Y-69515717D01*
X172147258Y-70061319D01*
X172146743Y-70652089D01*
X168616744Y-70652089D01*
X168617257Y-70063911D01*
X168391656Y-69517914D01*
X167974283Y-69099812D01*
X167428681Y-68873258D01*
X166837911Y-68872743D01*
X166291914Y-69098344D01*
X165873812Y-69515717D01*
X165647258Y-70061319D01*
X165646743Y-70652089D01*
X164112405Y-70652089D01*
X163893147Y-70323946D01*
X163563974Y-70104000D01*
X163893147Y-69884054D01*
X164215054Y-69402285D01*
X164328093Y-68834000D01*
X164215054Y-68265715D01*
X163893147Y-67783946D01*
X163563974Y-67564000D01*
X163893147Y-67344054D01*
X164215054Y-66862285D01*
X164283916Y-66516089D01*
X165646743Y-66516089D01*
X165872344Y-67062086D01*
X166289717Y-67480188D01*
X166835319Y-67706742D01*
X167426089Y-67707257D01*
X167972086Y-67481656D01*
X168390188Y-67064283D01*
X168616742Y-66518681D01*
X168616744Y-66516089D01*
X172146743Y-66516089D01*
X172372344Y-67062086D01*
X172789717Y-67480188D01*
X173335319Y-67706742D01*
X173926089Y-67707257D01*
X174472086Y-67481656D01*
X174890188Y-67064283D01*
X175116742Y-66518681D01*
X175117257Y-65927911D01*
X174891656Y-65381914D01*
X174474283Y-64963812D01*
X173928681Y-64737258D01*
X173337911Y-64736743D01*
X172791914Y-64962344D01*
X172373812Y-65379717D01*
X172147258Y-65925319D01*
X172146743Y-66516089D01*
X168616744Y-66516089D01*
X168617257Y-65927911D01*
X168391656Y-65381914D01*
X167974283Y-64963812D01*
X167428681Y-64737258D01*
X166837911Y-64736743D01*
X166291914Y-64962344D01*
X165873812Y-65379717D01*
X165647258Y-65925319D01*
X165646743Y-66516089D01*
X164283916Y-66516089D01*
X164328093Y-66294000D01*
X164215054Y-65725715D01*
X163893147Y-65243946D01*
X163563974Y-65024000D01*
X163893147Y-64804054D01*
X164215054Y-64322285D01*
X164328093Y-63754000D01*
X164215054Y-63185715D01*
X163893147Y-62703946D01*
X163563974Y-62484000D01*
X163893147Y-62264054D01*
X164058831Y-62016089D01*
X165646743Y-62016089D01*
X165872344Y-62562086D01*
X166289717Y-62980188D01*
X166835319Y-63206742D01*
X167426089Y-63207257D01*
X167972086Y-62981656D01*
X168390188Y-62564283D01*
X168616742Y-62018681D01*
X168616744Y-62016089D01*
X172146743Y-62016089D01*
X172372344Y-62562086D01*
X172789717Y-62980188D01*
X173335319Y-63206742D01*
X173926089Y-63207257D01*
X174472086Y-62981656D01*
X174890188Y-62564283D01*
X175116742Y-62018681D01*
X175117257Y-61427911D01*
X174891656Y-60881914D01*
X174474283Y-60463812D01*
X173928681Y-60237258D01*
X173337911Y-60236743D01*
X172791914Y-60462344D01*
X172373812Y-60879717D01*
X172147258Y-61425319D01*
X172146743Y-62016089D01*
X168616744Y-62016089D01*
X168617257Y-61427911D01*
X168391656Y-60881914D01*
X167974283Y-60463812D01*
X167428681Y-60237258D01*
X166837911Y-60236743D01*
X166291914Y-60462344D01*
X165873812Y-60879717D01*
X165647258Y-61425319D01*
X165646743Y-62016089D01*
X164058831Y-62016089D01*
X164215054Y-61782285D01*
X164328093Y-61214000D01*
X164215054Y-60645715D01*
X163893147Y-60163946D01*
X163563974Y-59944000D01*
X163893147Y-59724054D01*
X164215054Y-59242285D01*
X164328093Y-58674000D01*
X164215054Y-58105715D01*
X164064296Y-57880089D01*
X165646743Y-57880089D01*
X165872344Y-58426086D01*
X166289717Y-58844188D01*
X166835319Y-59070742D01*
X167426089Y-59071257D01*
X167972086Y-58845656D01*
X168390188Y-58428283D01*
X168616742Y-57882681D01*
X168616744Y-57880089D01*
X172146743Y-57880089D01*
X172372344Y-58426086D01*
X172789717Y-58844188D01*
X173335319Y-59070742D01*
X173926089Y-59071257D01*
X174472086Y-58845656D01*
X174890188Y-58428283D01*
X175116742Y-57882681D01*
X175117257Y-57291911D01*
X174891656Y-56745914D01*
X174474283Y-56327812D01*
X173928681Y-56101258D01*
X173337911Y-56100743D01*
X172791914Y-56326344D01*
X172373812Y-56743717D01*
X172147258Y-57289319D01*
X172146743Y-57880089D01*
X168616744Y-57880089D01*
X168617257Y-57291911D01*
X168391656Y-56745914D01*
X167974283Y-56327812D01*
X167428681Y-56101258D01*
X166837911Y-56100743D01*
X166291914Y-56326344D01*
X165873812Y-56743717D01*
X165647258Y-57289319D01*
X165646743Y-57880089D01*
X164064296Y-57880089D01*
X163893147Y-57623946D01*
X163563974Y-57404000D01*
X163893147Y-57184054D01*
X164215054Y-56702285D01*
X164328093Y-56134000D01*
X164215054Y-55565715D01*
X163893147Y-55083946D01*
X163563974Y-54864000D01*
X163893147Y-54644054D01*
X164215054Y-54162285D01*
X164328093Y-53594000D01*
X164285544Y-53380089D01*
X165646743Y-53380089D01*
X165872344Y-53926086D01*
X166289717Y-54344188D01*
X166835319Y-54570742D01*
X167426089Y-54571257D01*
X167972086Y-54345656D01*
X168390188Y-53928283D01*
X168616742Y-53382681D01*
X168616744Y-53380089D01*
X172146743Y-53380089D01*
X172372344Y-53926086D01*
X172789717Y-54344188D01*
X173335319Y-54570742D01*
X173926089Y-54571257D01*
X174472086Y-54345656D01*
X174890188Y-53928283D01*
X175116742Y-53382681D01*
X175117257Y-52791911D01*
X174891656Y-52245914D01*
X174474283Y-51827812D01*
X173928681Y-51601258D01*
X173337911Y-51600743D01*
X172791914Y-51826344D01*
X172373812Y-52243717D01*
X172147258Y-52789319D01*
X172146743Y-53380089D01*
X168616744Y-53380089D01*
X168617257Y-52791911D01*
X168391656Y-52245914D01*
X167974283Y-51827812D01*
X167428681Y-51601258D01*
X166837911Y-51600743D01*
X166291914Y-51826344D01*
X165873812Y-52243717D01*
X165647258Y-52789319D01*
X165646743Y-53380089D01*
X164285544Y-53380089D01*
X164215054Y-53025715D01*
X163893147Y-52543946D01*
X163849223Y-52514597D01*
X164023698Y-52442327D01*
X164202327Y-52263699D01*
X164299000Y-52030310D01*
X164299000Y-51339750D01*
X164140250Y-51181000D01*
X162941000Y-51181000D01*
X162941000Y-51201000D01*
X162687000Y-51201000D01*
X162687000Y-51181000D01*
X162667000Y-51181000D01*
X162667000Y-50927000D01*
X162687000Y-50927000D01*
X162687000Y-50907000D01*
X162941000Y-50907000D01*
X162941000Y-50927000D01*
X164140250Y-50927000D01*
X164299000Y-50768250D01*
X164299000Y-50077690D01*
X164202327Y-49844301D01*
X164068025Y-49710000D01*
X175290000Y-49710000D01*
X175290000Y-95873000D01*
X122710000Y-95873000D01*
X122710000Y-91979750D01*
X133897000Y-91979750D01*
X133897000Y-92670310D01*
X133993673Y-92903699D01*
X134172302Y-93082327D01*
X134405691Y-93179000D01*
X135096250Y-93179000D01*
X135255000Y-93020250D01*
X135255000Y-91821000D01*
X135509000Y-91821000D01*
X135509000Y-93020250D01*
X135667750Y-93179000D01*
X136358309Y-93179000D01*
X136591698Y-93082327D01*
X136770327Y-92903699D01*
X136867000Y-92670310D01*
X136867000Y-91979750D01*
X136708250Y-91821000D01*
X135509000Y-91821000D01*
X135255000Y-91821000D01*
X134055750Y-91821000D01*
X133897000Y-91979750D01*
X122710000Y-91979750D01*
X122710000Y-76731773D01*
X123109717Y-77132188D01*
X123655319Y-77358742D01*
X124246089Y-77359257D01*
X124792086Y-77133656D01*
X125210188Y-76716283D01*
X125436742Y-76170681D01*
X125437257Y-75579911D01*
X125211656Y-75033914D01*
X124794283Y-74615812D01*
X124248681Y-74389258D01*
X123657911Y-74388743D01*
X123111914Y-74614344D01*
X122710000Y-75015557D01*
X122710000Y-72231773D01*
X123109717Y-72632188D01*
X123655319Y-72858742D01*
X124246089Y-72859257D01*
X124792086Y-72633656D01*
X125210188Y-72216283D01*
X125436742Y-71670681D01*
X125437257Y-71079911D01*
X125211656Y-70533914D01*
X124794283Y-70115812D01*
X124248681Y-69889258D01*
X123657911Y-69888743D01*
X123111914Y-70114344D01*
X122710000Y-70515557D01*
X122710000Y-68349773D01*
X123109717Y-68750188D01*
X123655319Y-68976742D01*
X124246089Y-68977257D01*
X124792086Y-68751656D01*
X125210188Y-68334283D01*
X125436742Y-67788681D01*
X125437257Y-67197911D01*
X125211656Y-66651914D01*
X124794283Y-66233812D01*
X124712000Y-66199645D01*
X124712000Y-64284747D01*
X124792086Y-64251656D01*
X125210188Y-63834283D01*
X125436742Y-63288681D01*
X125437257Y-62697911D01*
X125211656Y-62151914D01*
X124794283Y-61733812D01*
X124248681Y-61507258D01*
X123657911Y-61506743D01*
X123111914Y-61732344D01*
X122710000Y-62133557D01*
X122710000Y-57824000D01*
X122962560Y-57824000D01*
X122962560Y-59524000D01*
X123006838Y-59759317D01*
X123145910Y-59975441D01*
X123358110Y-60120431D01*
X123610000Y-60171440D01*
X125310000Y-60171440D01*
X125545317Y-60127162D01*
X125761441Y-59988090D01*
X125906431Y-59775890D01*
X125957440Y-59524000D01*
X125957440Y-57824000D01*
X125913162Y-57588683D01*
X125774090Y-57372559D01*
X125561890Y-57227569D01*
X125310000Y-57176560D01*
X123610000Y-57176560D01*
X123374683Y-57220838D01*
X123158559Y-57359910D01*
X123013569Y-57572110D01*
X122962560Y-57824000D01*
X122710000Y-57824000D01*
X122710000Y-49710000D01*
X130132226Y-49710000D01*
X130094560Y-49896000D01*
X130094560Y-49896000D01*
G37*
X130094560Y-49896000D02*
X130094560Y-51196000D01*
X130138838Y-51431317D01*
X130223225Y-51562457D01*
X130145569Y-51676110D01*
X130094560Y-51928000D01*
X130094560Y-53228000D01*
X130138838Y-53463317D01*
X130223225Y-53594457D01*
X130145569Y-53708110D01*
X130094560Y-53960000D01*
X130094560Y-55260000D01*
X130138838Y-55495317D01*
X130277910Y-55711441D01*
X130490110Y-55856431D01*
X130732000Y-55905415D01*
X130732000Y-56407198D01*
X125954599Y-61184599D01*
X125789852Y-61431161D01*
X125732000Y-61722000D01*
X125732000Y-81026000D01*
X125789852Y-81316839D01*
X125954599Y-81563401D01*
X126970599Y-82579401D01*
X127217161Y-82744148D01*
X127508000Y-82802000D01*
X129537046Y-82802000D01*
X129730853Y-83092054D01*
X130060026Y-83312000D01*
X129730853Y-83531946D01*
X129408946Y-84013715D01*
X129295907Y-84582000D01*
X129408946Y-85150285D01*
X129730853Y-85632054D01*
X130212622Y-85953961D01*
X130780907Y-86067000D01*
X130839093Y-86067000D01*
X131407378Y-85953961D01*
X131889147Y-85632054D01*
X132211054Y-85150285D01*
X132249103Y-84959000D01*
X134192568Y-84959000D01*
X134302853Y-85124054D01*
X134632026Y-85344000D01*
X134302853Y-85563946D01*
X133980946Y-86045715D01*
X133867907Y-86614000D01*
X133980946Y-87182285D01*
X134302853Y-87664054D01*
X134632026Y-87884000D01*
X134302853Y-88103946D01*
X133980946Y-88585715D01*
X133867907Y-89154000D01*
X133980946Y-89722285D01*
X134302853Y-90204054D01*
X134346777Y-90233403D01*
X134172302Y-90305673D01*
X133993673Y-90484301D01*
X133897000Y-90717690D01*
X133897000Y-91408250D01*
X134055750Y-91567000D01*
X135255000Y-91567000D01*
X135255000Y-91547000D01*
X135509000Y-91547000D01*
X135509000Y-91567000D01*
X136708250Y-91567000D01*
X136867000Y-91408250D01*
X136867000Y-90717690D01*
X136770327Y-90484301D01*
X136591698Y-90305673D01*
X136417223Y-90233403D01*
X136461147Y-90204054D01*
X136783054Y-89722285D01*
X136896093Y-89154000D01*
X136810398Y-88723182D01*
X141341787Y-84191792D01*
X141341790Y-84191790D01*
X141533633Y-83904675D01*
X141556308Y-83790681D01*
X141601001Y-83566000D01*
X141601000Y-83565995D01*
X141601000Y-68876429D01*
X141621691Y-68885000D01*
X142462250Y-68885000D01*
X142621000Y-68726250D01*
X142621000Y-67977000D01*
X142601000Y-67977000D01*
X142601000Y-67797440D01*
X143748000Y-67797440D01*
X143983317Y-67753162D01*
X144030190Y-67723000D01*
X144224250Y-67723000D01*
X144383000Y-67564250D01*
X144383000Y-67323690D01*
X144367732Y-67286829D01*
X144395440Y-67150000D01*
X144395440Y-66350000D01*
X144366179Y-66194493D01*
X144395440Y-66050000D01*
X144395440Y-65250000D01*
X144366179Y-65094493D01*
X144395440Y-64950000D01*
X144395440Y-64150000D01*
X144366179Y-63994493D01*
X144395440Y-63850000D01*
X144395440Y-63050000D01*
X144366179Y-62894493D01*
X144395440Y-62750000D01*
X144395440Y-61950000D01*
X144366179Y-61794493D01*
X144395440Y-61650000D01*
X144395440Y-60850000D01*
X144366179Y-60694493D01*
X144395440Y-60550000D01*
X144395440Y-59810000D01*
X148783954Y-59810000D01*
X148911201Y-59862838D01*
X149283167Y-59863162D01*
X149626943Y-59721117D01*
X149890192Y-59458327D01*
X150032838Y-59114799D01*
X150033162Y-58742833D01*
X149891117Y-58399057D01*
X149628327Y-58135808D01*
X149284799Y-57993162D01*
X149016930Y-57992929D01*
X149017162Y-57726833D01*
X148875117Y-57383057D01*
X148612327Y-57119808D01*
X148508843Y-57076838D01*
X148509162Y-56710833D01*
X148367117Y-56367057D01*
X148104327Y-56103808D01*
X147760799Y-55961162D01*
X147388833Y-55960838D01*
X147076236Y-56090000D01*
X144395440Y-56090000D01*
X144395440Y-55350000D01*
X144366179Y-55194493D01*
X144395440Y-55050000D01*
X144395440Y-54250000D01*
X144366179Y-54094493D01*
X144395440Y-53950000D01*
X144395440Y-53150000D01*
X144366179Y-52994493D01*
X144395440Y-52850000D01*
X144395440Y-52050000D01*
X144366179Y-51894493D01*
X144395440Y-51750000D01*
X144395440Y-50950000D01*
X144366179Y-50794493D01*
X144395440Y-50650000D01*
X144395440Y-49850000D01*
X144369097Y-49710000D01*
X154618671Y-49710000D01*
X154613000Y-49723690D01*
X154613000Y-49964250D01*
X154771750Y-50123000D01*
X156121000Y-50123000D01*
X156121000Y-50103000D01*
X156375000Y-50103000D01*
X156375000Y-50123000D01*
X157724250Y-50123000D01*
X157883000Y-49964250D01*
X157883000Y-49723690D01*
X157877329Y-49710000D01*
X161559975Y-49710000D01*
X161425673Y-49844301D01*
X161329000Y-50077690D01*
X161329000Y-50768250D01*
X161487748Y-50926998D01*
X161329000Y-50926998D01*
X161329000Y-51034198D01*
X161107401Y-50812599D01*
X160860839Y-50647852D01*
X160570000Y-50590000D01*
X157883000Y-50590000D01*
X157883000Y-50535750D01*
X157724250Y-50377000D01*
X157534182Y-50377000D01*
X157499890Y-50353569D01*
X157248000Y-50302560D01*
X155248000Y-50302560D01*
X155012683Y-50346838D01*
X154965810Y-50377000D01*
X154771750Y-50377000D01*
X154613000Y-50535750D01*
X154613000Y-50776310D01*
X154628268Y-50813171D01*
X154600560Y-50950000D01*
X154600560Y-51750000D01*
X154629821Y-51905507D01*
X154600560Y-52050000D01*
X154600560Y-52850000D01*
X154629821Y-53005507D01*
X154600560Y-53150000D01*
X154600560Y-53950000D01*
X154629821Y-54105507D01*
X154600560Y-54250000D01*
X154600560Y-55050000D01*
X154629821Y-55205507D01*
X154600560Y-55350000D01*
X154600560Y-56090000D01*
X153151074Y-56090000D01*
X152840799Y-55961162D01*
X152468833Y-55960838D01*
X152125057Y-56102883D01*
X151861808Y-56365673D01*
X151719162Y-56709201D01*
X151718838Y-57081167D01*
X151763807Y-57190000D01*
X151476397Y-57190000D01*
X151406327Y-57119808D01*
X151062799Y-56977162D01*
X150690833Y-56976838D01*
X150347057Y-57118883D01*
X150083808Y-57381673D01*
X149941162Y-57725201D01*
X149940838Y-58097167D01*
X150082883Y-58440943D01*
X150345673Y-58704192D01*
X150689201Y-58846838D01*
X151061167Y-58847162D01*
X151393125Y-58710000D01*
X154600560Y-58710000D01*
X154600560Y-59450000D01*
X154629821Y-59605507D01*
X154600560Y-59750000D01*
X154600560Y-60550000D01*
X154629821Y-60705507D01*
X154600560Y-60850000D01*
X154600560Y-61650000D01*
X154629821Y-61805507D01*
X154600560Y-61950000D01*
X154600560Y-62750000D01*
X154629821Y-62905507D01*
X154600560Y-63050000D01*
X154600560Y-63850000D01*
X154629821Y-64005507D01*
X154600560Y-64150000D01*
X154600560Y-64950000D01*
X154629821Y-65105507D01*
X154600560Y-65250000D01*
X154600560Y-66050000D01*
X154629821Y-66205507D01*
X154600560Y-66350000D01*
X154600560Y-67150000D01*
X154629821Y-67305507D01*
X154600560Y-67450000D01*
X154600560Y-68202560D01*
X153948000Y-68202560D01*
X153740658Y-68241574D01*
X153548000Y-68202560D01*
X152748000Y-68202560D01*
X152540658Y-68241574D01*
X152348000Y-68202560D01*
X151548000Y-68202560D01*
X151340658Y-68241574D01*
X151148000Y-68202560D01*
X150348000Y-68202560D01*
X150140658Y-68241574D01*
X149948000Y-68202560D01*
X149148000Y-68202560D01*
X148940658Y-68241574D01*
X148748000Y-68202560D01*
X147948000Y-68202560D01*
X147740658Y-68241574D01*
X147548000Y-68202560D01*
X146748000Y-68202560D01*
X146540658Y-68241574D01*
X146348000Y-68202560D01*
X145548000Y-68202560D01*
X145340658Y-68241574D01*
X145148000Y-68202560D01*
X144383000Y-68202560D01*
X144383000Y-68135750D01*
X144224250Y-67977000D01*
X142875000Y-67977000D01*
X142875000Y-68726250D01*
X143033750Y-68885000D01*
X143700560Y-68885000D01*
X143700560Y-70850000D01*
X143744838Y-71085317D01*
X143863000Y-71268946D01*
X143863000Y-81707421D01*
X138312210Y-87258210D01*
X138120367Y-87545325D01*
X138120367Y-87545326D01*
X138052999Y-87884000D01*
X138053000Y-87884005D01*
X138053000Y-90504568D01*
X137887946Y-90614853D01*
X137566039Y-91096622D01*
X137453000Y-91664907D01*
X137453000Y-91723093D01*
X137566039Y-92291378D01*
X137887946Y-92773147D01*
X138369715Y-93095054D01*
X138938000Y-93208093D01*
X139506285Y-93095054D01*
X139988054Y-92773147D01*
X140208000Y-92443974D01*
X140427946Y-92773147D01*
X140909715Y-93095054D01*
X141478000Y-93208093D01*
X142046285Y-93095054D01*
X142528054Y-92773147D01*
X142748000Y-92443974D01*
X142967946Y-92773147D01*
X143449715Y-93095054D01*
X144018000Y-93208093D01*
X144586285Y-93095054D01*
X145068054Y-92773147D01*
X145288000Y-92443974D01*
X145507946Y-92773147D01*
X145989715Y-93095054D01*
X146558000Y-93208093D01*
X147126285Y-93095054D01*
X147608054Y-92773147D01*
X147828000Y-92443974D01*
X148047946Y-92773147D01*
X148529715Y-93095054D01*
X149098000Y-93208093D01*
X149666285Y-93095054D01*
X150148054Y-92773147D01*
X150368000Y-92443974D01*
X150587946Y-92773147D01*
X151069715Y-93095054D01*
X151638000Y-93208093D01*
X152206285Y-93095054D01*
X152688054Y-92773147D01*
X152908000Y-92443974D01*
X153127946Y-92773147D01*
X153609715Y-93095054D01*
X154178000Y-93208093D01*
X154746285Y-93095054D01*
X155228054Y-92773147D01*
X155448000Y-92443974D01*
X155667946Y-92773147D01*
X156149715Y-93095054D01*
X156718000Y-93208093D01*
X157286285Y-93095054D01*
X157768054Y-92773147D01*
X157795850Y-92731548D01*
X157804838Y-92779317D01*
X157943910Y-92995441D01*
X158156110Y-93140431D01*
X158408000Y-93191440D01*
X160108000Y-93191440D01*
X160343317Y-93147162D01*
X160559441Y-93008090D01*
X160704431Y-92795890D01*
X160755440Y-92544000D01*
X160755440Y-91218242D01*
X161316968Y-91779770D01*
X161412946Y-92262285D01*
X161734853Y-92744054D01*
X162216622Y-93065961D01*
X162784907Y-93179000D01*
X162843093Y-93179000D01*
X163411378Y-93065961D01*
X163893147Y-92744054D01*
X164106940Y-92424089D01*
X165646743Y-92424089D01*
X165872344Y-92970086D01*
X166289717Y-93388188D01*
X166835319Y-93614742D01*
X167426089Y-93615257D01*
X167972086Y-93389656D01*
X168390188Y-92972283D01*
X168616742Y-92426681D01*
X168616744Y-92424089D01*
X172146743Y-92424089D01*
X172372344Y-92970086D01*
X172789717Y-93388188D01*
X173335319Y-93614742D01*
X173926089Y-93615257D01*
X174472086Y-93389656D01*
X174890188Y-92972283D01*
X175116742Y-92426681D01*
X175117257Y-91835911D01*
X174891656Y-91289914D01*
X174474283Y-90871812D01*
X173928681Y-90645258D01*
X173337911Y-90644743D01*
X172791914Y-90870344D01*
X172373812Y-91287717D01*
X172147258Y-91833319D01*
X172146743Y-92424089D01*
X168616744Y-92424089D01*
X168617257Y-91835911D01*
X168391656Y-91289914D01*
X167974283Y-90871812D01*
X167428681Y-90645258D01*
X166837911Y-90644743D01*
X166291914Y-90870344D01*
X165873812Y-91287717D01*
X165647258Y-91833319D01*
X165646743Y-92424089D01*
X164106940Y-92424089D01*
X164215054Y-92262285D01*
X164328093Y-91694000D01*
X164215054Y-91125715D01*
X163893147Y-90643946D01*
X163563974Y-90424000D01*
X163893147Y-90204054D01*
X164215054Y-89722285D01*
X164328093Y-89154000D01*
X164215054Y-88585715D01*
X163893147Y-88103946D01*
X163623972Y-87924089D01*
X165646743Y-87924089D01*
X165872344Y-88470086D01*
X166289717Y-88888188D01*
X166835319Y-89114742D01*
X167426089Y-89115257D01*
X167972086Y-88889656D01*
X168390188Y-88472283D01*
X168616742Y-87926681D01*
X168616744Y-87924089D01*
X172146743Y-87924089D01*
X172372344Y-88470086D01*
X172789717Y-88888188D01*
X173335319Y-89114742D01*
X173926089Y-89115257D01*
X174472086Y-88889656D01*
X174890188Y-88472283D01*
X175116742Y-87926681D01*
X175117257Y-87335911D01*
X174891656Y-86789914D01*
X174474283Y-86371812D01*
X173928681Y-86145258D01*
X173337911Y-86144743D01*
X172791914Y-86370344D01*
X172373812Y-86787717D01*
X172147258Y-87333319D01*
X172146743Y-87924089D01*
X168616744Y-87924089D01*
X168617257Y-87335911D01*
X168391656Y-86789914D01*
X167974283Y-86371812D01*
X167428681Y-86145258D01*
X166837911Y-86144743D01*
X166291914Y-86370344D01*
X165873812Y-86787717D01*
X165647258Y-87333319D01*
X165646743Y-87924089D01*
X163623972Y-87924089D01*
X163563974Y-87884000D01*
X163893147Y-87664054D01*
X164215054Y-87182285D01*
X164328093Y-86614000D01*
X164215054Y-86045715D01*
X163893147Y-85563946D01*
X163563974Y-85344000D01*
X163893147Y-85124054D01*
X164215054Y-84642285D01*
X164328093Y-84074000D01*
X164271222Y-83788089D01*
X165646743Y-83788089D01*
X165872344Y-84334086D01*
X166289717Y-84752188D01*
X166835319Y-84978742D01*
X167426089Y-84979257D01*
X167972086Y-84753656D01*
X168390188Y-84336283D01*
X168616742Y-83790681D01*
X168616744Y-83788089D01*
X172146743Y-83788089D01*
X172372344Y-84334086D01*
X172789717Y-84752188D01*
X173335319Y-84978742D01*
X173926089Y-84979257D01*
X174472086Y-84753656D01*
X174890188Y-84336283D01*
X175116742Y-83790681D01*
X175117257Y-83199911D01*
X174891656Y-82653914D01*
X174474283Y-82235812D01*
X173928681Y-82009258D01*
X173337911Y-82008743D01*
X172791914Y-82234344D01*
X172373812Y-82651717D01*
X172147258Y-83197319D01*
X172146743Y-83788089D01*
X168616744Y-83788089D01*
X168617257Y-83199911D01*
X168391656Y-82653914D01*
X167974283Y-82235812D01*
X167428681Y-82009258D01*
X166837911Y-82008743D01*
X166291914Y-82234344D01*
X165873812Y-82651717D01*
X165647258Y-83197319D01*
X165646743Y-83788089D01*
X164271222Y-83788089D01*
X164215054Y-83505715D01*
X163893147Y-83023946D01*
X163563974Y-82804000D01*
X163893147Y-82584054D01*
X164215054Y-82102285D01*
X164328093Y-81534000D01*
X164215054Y-80965715D01*
X163893147Y-80483946D01*
X163563974Y-80264000D01*
X163893147Y-80044054D01*
X164215054Y-79562285D01*
X164269595Y-79288089D01*
X165646743Y-79288089D01*
X165872344Y-79834086D01*
X166289717Y-80252188D01*
X166835319Y-80478742D01*
X167426089Y-80479257D01*
X167972086Y-80253656D01*
X168390188Y-79836283D01*
X168616742Y-79290681D01*
X168616744Y-79288089D01*
X172146743Y-79288089D01*
X172372344Y-79834086D01*
X172789717Y-80252188D01*
X173335319Y-80478742D01*
X173926089Y-80479257D01*
X174472086Y-80253656D01*
X174890188Y-79836283D01*
X175116742Y-79290681D01*
X175117257Y-78699911D01*
X174891656Y-78153914D01*
X174474283Y-77735812D01*
X173928681Y-77509258D01*
X173337911Y-77508743D01*
X172791914Y-77734344D01*
X172373812Y-78151717D01*
X172147258Y-78697319D01*
X172146743Y-79288089D01*
X168616744Y-79288089D01*
X168617257Y-78699911D01*
X168391656Y-78153914D01*
X167974283Y-77735812D01*
X167428681Y-77509258D01*
X166837911Y-77508743D01*
X166291914Y-77734344D01*
X165873812Y-78151717D01*
X165647258Y-78697319D01*
X165646743Y-79288089D01*
X164269595Y-79288089D01*
X164328093Y-78994000D01*
X164215054Y-78425715D01*
X163893147Y-77943946D01*
X163563974Y-77724000D01*
X163893147Y-77504054D01*
X164215054Y-77022285D01*
X164328093Y-76454000D01*
X164215054Y-75885715D01*
X163893147Y-75403946D01*
X163563974Y-75184000D01*
X163611732Y-75152089D01*
X165646743Y-75152089D01*
X165872344Y-75698086D01*
X166289717Y-76116188D01*
X166835319Y-76342742D01*
X167426089Y-76343257D01*
X167972086Y-76117656D01*
X168390188Y-75700283D01*
X168423524Y-75620000D01*
X171960000Y-75620000D01*
X171960000Y-75692000D01*
X172017852Y-75982839D01*
X172182599Y-76229401D01*
X172429161Y-76394148D01*
X172720000Y-76452000D01*
X173010839Y-76394148D01*
X173182650Y-76279348D01*
X173335319Y-76342742D01*
X173926089Y-76343257D01*
X174472086Y-76117656D01*
X174890188Y-75700283D01*
X175116742Y-75154681D01*
X175117257Y-74563911D01*
X174891656Y-74017914D01*
X174474283Y-73599812D01*
X173928681Y-73373258D01*
X173337911Y-73372743D01*
X172791914Y-73598344D01*
X172373812Y-74015717D01*
X172147258Y-74561319D01*
X172146757Y-75136241D01*
X172017852Y-75329161D01*
X171960000Y-75620000D01*
X168423524Y-75620000D01*
X168616742Y-75154681D01*
X168617257Y-74563911D01*
X168391656Y-74017914D01*
X167974283Y-73599812D01*
X167428681Y-73373258D01*
X166837911Y-73372743D01*
X166291914Y-73598344D01*
X165873812Y-74015717D01*
X165647258Y-74561319D01*
X165646743Y-75152089D01*
X163611732Y-75152089D01*
X163893147Y-74964054D01*
X164215054Y-74482285D01*
X164328093Y-73914000D01*
X164215054Y-73345715D01*
X163893147Y-72863946D01*
X163563974Y-72644000D01*
X163893147Y-72424054D01*
X164215054Y-71942285D01*
X164328093Y-71374000D01*
X164215054Y-70805715D01*
X164112405Y-70652089D01*
X165646743Y-70652089D01*
X165872344Y-71198086D01*
X166289717Y-71616188D01*
X166835319Y-71842742D01*
X167426089Y-71843257D01*
X167972086Y-71617656D01*
X168390188Y-71200283D01*
X168616742Y-70654681D01*
X168616744Y-70652089D01*
X172146743Y-70652089D01*
X172372344Y-71198086D01*
X172789717Y-71616188D01*
X173335319Y-71842742D01*
X173926089Y-71843257D01*
X174472086Y-71617656D01*
X174890188Y-71200283D01*
X175116742Y-70654681D01*
X175117257Y-70063911D01*
X174891656Y-69517914D01*
X174474283Y-69099812D01*
X173928681Y-68873258D01*
X173337911Y-68872743D01*
X172791914Y-69098344D01*
X172373812Y-69515717D01*
X172147258Y-70061319D01*
X172146743Y-70652089D01*
X168616744Y-70652089D01*
X168617257Y-70063911D01*
X168391656Y-69517914D01*
X167974283Y-69099812D01*
X167428681Y-68873258D01*
X166837911Y-68872743D01*
X166291914Y-69098344D01*
X165873812Y-69515717D01*
X165647258Y-70061319D01*
X165646743Y-70652089D01*
X164112405Y-70652089D01*
X163893147Y-70323946D01*
X163563974Y-70104000D01*
X163893147Y-69884054D01*
X164215054Y-69402285D01*
X164328093Y-68834000D01*
X164215054Y-68265715D01*
X163893147Y-67783946D01*
X163563974Y-67564000D01*
X163893147Y-67344054D01*
X164215054Y-66862285D01*
X164283916Y-66516089D01*
X165646743Y-66516089D01*
X165872344Y-67062086D01*
X166289717Y-67480188D01*
X166835319Y-67706742D01*
X167426089Y-67707257D01*
X167972086Y-67481656D01*
X168390188Y-67064283D01*
X168616742Y-66518681D01*
X168616744Y-66516089D01*
X172146743Y-66516089D01*
X172372344Y-67062086D01*
X172789717Y-67480188D01*
X173335319Y-67706742D01*
X173926089Y-67707257D01*
X174472086Y-67481656D01*
X174890188Y-67064283D01*
X175116742Y-66518681D01*
X175117257Y-65927911D01*
X174891656Y-65381914D01*
X174474283Y-64963812D01*
X173928681Y-64737258D01*
X173337911Y-64736743D01*
X172791914Y-64962344D01*
X172373812Y-65379717D01*
X172147258Y-65925319D01*
X172146743Y-66516089D01*
X168616744Y-66516089D01*
X168617257Y-65927911D01*
X168391656Y-65381914D01*
X167974283Y-64963812D01*
X167428681Y-64737258D01*
X166837911Y-64736743D01*
X166291914Y-64962344D01*
X165873812Y-65379717D01*
X165647258Y-65925319D01*
X165646743Y-66516089D01*
X164283916Y-66516089D01*
X164328093Y-66294000D01*
X164215054Y-65725715D01*
X163893147Y-65243946D01*
X163563974Y-65024000D01*
X163893147Y-64804054D01*
X164215054Y-64322285D01*
X164328093Y-63754000D01*
X164215054Y-63185715D01*
X163893147Y-62703946D01*
X163563974Y-62484000D01*
X163893147Y-62264054D01*
X164058831Y-62016089D01*
X165646743Y-62016089D01*
X165872344Y-62562086D01*
X166289717Y-62980188D01*
X166835319Y-63206742D01*
X167426089Y-63207257D01*
X167972086Y-62981656D01*
X168390188Y-62564283D01*
X168616742Y-62018681D01*
X168616744Y-62016089D01*
X172146743Y-62016089D01*
X172372344Y-62562086D01*
X172789717Y-62980188D01*
X173335319Y-63206742D01*
X173926089Y-63207257D01*
X174472086Y-62981656D01*
X174890188Y-62564283D01*
X175116742Y-62018681D01*
X175117257Y-61427911D01*
X174891656Y-60881914D01*
X174474283Y-60463812D01*
X173928681Y-60237258D01*
X173337911Y-60236743D01*
X172791914Y-60462344D01*
X172373812Y-60879717D01*
X172147258Y-61425319D01*
X172146743Y-62016089D01*
X168616744Y-62016089D01*
X168617257Y-61427911D01*
X168391656Y-60881914D01*
X167974283Y-60463812D01*
X167428681Y-60237258D01*
X166837911Y-60236743D01*
X166291914Y-60462344D01*
X165873812Y-60879717D01*
X165647258Y-61425319D01*
X165646743Y-62016089D01*
X164058831Y-62016089D01*
X164215054Y-61782285D01*
X164328093Y-61214000D01*
X164215054Y-60645715D01*
X163893147Y-60163946D01*
X163563974Y-59944000D01*
X163893147Y-59724054D01*
X164215054Y-59242285D01*
X164328093Y-58674000D01*
X164215054Y-58105715D01*
X164064296Y-57880089D01*
X165646743Y-57880089D01*
X165872344Y-58426086D01*
X166289717Y-58844188D01*
X166835319Y-59070742D01*
X167426089Y-59071257D01*
X167972086Y-58845656D01*
X168390188Y-58428283D01*
X168616742Y-57882681D01*
X168616744Y-57880089D01*
X172146743Y-57880089D01*
X172372344Y-58426086D01*
X172789717Y-58844188D01*
X173335319Y-59070742D01*
X173926089Y-59071257D01*
X174472086Y-58845656D01*
X174890188Y-58428283D01*
X175116742Y-57882681D01*
X175117257Y-57291911D01*
X174891656Y-56745914D01*
X174474283Y-56327812D01*
X173928681Y-56101258D01*
X173337911Y-56100743D01*
X172791914Y-56326344D01*
X172373812Y-56743717D01*
X172147258Y-57289319D01*
X172146743Y-57880089D01*
X168616744Y-57880089D01*
X168617257Y-57291911D01*
X168391656Y-56745914D01*
X167974283Y-56327812D01*
X167428681Y-56101258D01*
X166837911Y-56100743D01*
X166291914Y-56326344D01*
X165873812Y-56743717D01*
X165647258Y-57289319D01*
X165646743Y-57880089D01*
X164064296Y-57880089D01*
X163893147Y-57623946D01*
X163563974Y-57404000D01*
X163893147Y-57184054D01*
X164215054Y-56702285D01*
X164328093Y-56134000D01*
X164215054Y-55565715D01*
X163893147Y-55083946D01*
X163563974Y-54864000D01*
X163893147Y-54644054D01*
X164215054Y-54162285D01*
X164328093Y-53594000D01*
X164285544Y-53380089D01*
X165646743Y-53380089D01*
X165872344Y-53926086D01*
X166289717Y-54344188D01*
X166835319Y-54570742D01*
X167426089Y-54571257D01*
X167972086Y-54345656D01*
X168390188Y-53928283D01*
X168616742Y-53382681D01*
X168616744Y-53380089D01*
X172146743Y-53380089D01*
X172372344Y-53926086D01*
X172789717Y-54344188D01*
X173335319Y-54570742D01*
X173926089Y-54571257D01*
X174472086Y-54345656D01*
X174890188Y-53928283D01*
X175116742Y-53382681D01*
X175117257Y-52791911D01*
X174891656Y-52245914D01*
X174474283Y-51827812D01*
X173928681Y-51601258D01*
X173337911Y-51600743D01*
X172791914Y-51826344D01*
X172373812Y-52243717D01*
X172147258Y-52789319D01*
X172146743Y-53380089D01*
X168616744Y-53380089D01*
X168617257Y-52791911D01*
X168391656Y-52245914D01*
X167974283Y-51827812D01*
X167428681Y-51601258D01*
X166837911Y-51600743D01*
X166291914Y-51826344D01*
X165873812Y-52243717D01*
X165647258Y-52789319D01*
X165646743Y-53380089D01*
X164285544Y-53380089D01*
X164215054Y-53025715D01*
X163893147Y-52543946D01*
X163849223Y-52514597D01*
X164023698Y-52442327D01*
X164202327Y-52263699D01*
X164299000Y-52030310D01*
X164299000Y-51339750D01*
X164140250Y-51181000D01*
X162941000Y-51181000D01*
X162941000Y-51201000D01*
X162687000Y-51201000D01*
X162687000Y-51181000D01*
X162667000Y-51181000D01*
X162667000Y-50927000D01*
X162687000Y-50927000D01*
X162687000Y-50907000D01*
X162941000Y-50907000D01*
X162941000Y-50927000D01*
X164140250Y-50927000D01*
X164299000Y-50768250D01*
X164299000Y-50077690D01*
X164202327Y-49844301D01*
X164068025Y-49710000D01*
X175290000Y-49710000D01*
X175290000Y-95873000D01*
X122710000Y-95873000D01*
X122710000Y-91979750D01*
X133897000Y-91979750D01*
X133897000Y-92670310D01*
X133993673Y-92903699D01*
X134172302Y-93082327D01*
X134405691Y-93179000D01*
X135096250Y-93179000D01*
X135255000Y-93020250D01*
X135255000Y-91821000D01*
X135509000Y-91821000D01*
X135509000Y-93020250D01*
X135667750Y-93179000D01*
X136358309Y-93179000D01*
X136591698Y-93082327D01*
X136770327Y-92903699D01*
X136867000Y-92670310D01*
X136867000Y-91979750D01*
X136708250Y-91821000D01*
X135509000Y-91821000D01*
X135255000Y-91821000D01*
X134055750Y-91821000D01*
X133897000Y-91979750D01*
X122710000Y-91979750D01*
X122710000Y-76731773D01*
X123109717Y-77132188D01*
X123655319Y-77358742D01*
X124246089Y-77359257D01*
X124792086Y-77133656D01*
X125210188Y-76716283D01*
X125436742Y-76170681D01*
X125437257Y-75579911D01*
X125211656Y-75033914D01*
X124794283Y-74615812D01*
X124248681Y-74389258D01*
X123657911Y-74388743D01*
X123111914Y-74614344D01*
X122710000Y-75015557D01*
X122710000Y-72231773D01*
X123109717Y-72632188D01*
X123655319Y-72858742D01*
X124246089Y-72859257D01*
X124792086Y-72633656D01*
X125210188Y-72216283D01*
X125436742Y-71670681D01*
X125437257Y-71079911D01*
X125211656Y-70533914D01*
X124794283Y-70115812D01*
X124248681Y-69889258D01*
X123657911Y-69888743D01*
X123111914Y-70114344D01*
X122710000Y-70515557D01*
X122710000Y-68349773D01*
X123109717Y-68750188D01*
X123655319Y-68976742D01*
X124246089Y-68977257D01*
X124792086Y-68751656D01*
X125210188Y-68334283D01*
X125436742Y-67788681D01*
X125437257Y-67197911D01*
X125211656Y-66651914D01*
X124794283Y-66233812D01*
X124712000Y-66199645D01*
X124712000Y-64284747D01*
X124792086Y-64251656D01*
X125210188Y-63834283D01*
X125436742Y-63288681D01*
X125437257Y-62697911D01*
X125211656Y-62151914D01*
X124794283Y-61733812D01*
X124248681Y-61507258D01*
X123657911Y-61506743D01*
X123111914Y-61732344D01*
X122710000Y-62133557D01*
X122710000Y-57824000D01*
X122962560Y-57824000D01*
X122962560Y-59524000D01*
X123006838Y-59759317D01*
X123145910Y-59975441D01*
X123358110Y-60120431D01*
X123610000Y-60171440D01*
X125310000Y-60171440D01*
X125545317Y-60127162D01*
X125761441Y-59988090D01*
X125906431Y-59775890D01*
X125957440Y-59524000D01*
X125957440Y-57824000D01*
X125913162Y-57588683D01*
X125774090Y-57372559D01*
X125561890Y-57227569D01*
X125310000Y-57176560D01*
X123610000Y-57176560D01*
X123374683Y-57220838D01*
X123158559Y-57359910D01*
X123013569Y-57572110D01*
X122962560Y-57824000D01*
X122710000Y-57824000D01*
X122710000Y-49710000D01*
X130132226Y-49710000D01*
X130094560Y-49896000D01*
G36*
X137549910Y-55711441D02*
X137762110Y-55856431D01*
X138014000Y-55907440D01*
X139505998Y-55907440D01*
X139505998Y-57031200D01*
X138623198Y-57914000D01*
X136654954Y-57914000D01*
X136461147Y-57623946D01*
X135979378Y-57302039D01*
X135411093Y-57189000D01*
X135352907Y-57189000D01*
X134784622Y-57302039D01*
X134302853Y-57623946D01*
X133980946Y-58105715D01*
X133867907Y-58674000D01*
X133980946Y-59242285D01*
X134302853Y-59724054D01*
X134632026Y-59944000D01*
X134302853Y-60163946D01*
X133980946Y-60645715D01*
X133867907Y-61214000D01*
X133980946Y-61782285D01*
X134302853Y-62264054D01*
X134632026Y-62484000D01*
X134302853Y-62703946D01*
X133980946Y-63185715D01*
X133867907Y-63754000D01*
X133980946Y-64322285D01*
X134302853Y-64804054D01*
X134632026Y-65024000D01*
X134302853Y-65243946D01*
X133980946Y-65725715D01*
X133867907Y-66294000D01*
X133980946Y-66862285D01*
X134302853Y-67344054D01*
X134632026Y-67564000D01*
X134302853Y-67783946D01*
X133980946Y-68265715D01*
X133867907Y-68834000D01*
X133980946Y-69402285D01*
X134302853Y-69884054D01*
X134632026Y-70104000D01*
X134302853Y-70323946D01*
X133980946Y-70805715D01*
X133867907Y-71374000D01*
X133980946Y-71942285D01*
X134302853Y-72424054D01*
X134632026Y-72644000D01*
X134302853Y-72863946D01*
X133980946Y-73345715D01*
X133867907Y-73914000D01*
X133980946Y-74482285D01*
X134302853Y-74964054D01*
X134632026Y-75184000D01*
X134302853Y-75403946D01*
X133980946Y-75885715D01*
X133867907Y-76454000D01*
X133980946Y-77022285D01*
X134302853Y-77504054D01*
X134632026Y-77724000D01*
X134302853Y-77943946D01*
X134192568Y-78109000D01*
X131990089Y-78109000D01*
X131911890Y-78055569D01*
X131660000Y-78004560D01*
X129960000Y-78004560D01*
X129724683Y-78048838D01*
X129508559Y-78187910D01*
X129363569Y-78400110D01*
X129312560Y-78652000D01*
X129312560Y-80352000D01*
X129356838Y-80587317D01*
X129495910Y-80803441D01*
X129708110Y-80948431D01*
X129775541Y-80962086D01*
X129730853Y-80991946D01*
X129537046Y-81282000D01*
X127822802Y-81282000D01*
X127252000Y-80711198D01*
X127252000Y-76168089D01*
X128966743Y-76168089D01*
X129192344Y-76714086D01*
X129609717Y-77132188D01*
X130155319Y-77358742D01*
X130746089Y-77359257D01*
X131292086Y-77133656D01*
X131710188Y-76716283D01*
X131936742Y-76170681D01*
X131937257Y-75579911D01*
X131711656Y-75033914D01*
X131294283Y-74615812D01*
X130748681Y-74389258D01*
X130157911Y-74388743D01*
X129611914Y-74614344D01*
X129193812Y-75031717D01*
X128967258Y-75577319D01*
X128966743Y-76168089D01*
X127252000Y-76168089D01*
X127252000Y-71668089D01*
X128966743Y-71668089D01*
X129192344Y-72214086D01*
X129609717Y-72632188D01*
X130155319Y-72858742D01*
X130746089Y-72859257D01*
X131292086Y-72633656D01*
X131710188Y-72216283D01*
X131936742Y-71670681D01*
X131937257Y-71079911D01*
X131711656Y-70533914D01*
X131294283Y-70115812D01*
X130748681Y-69889258D01*
X130157911Y-69888743D01*
X129611914Y-70114344D01*
X129193812Y-70531717D01*
X128967258Y-71077319D01*
X128966743Y-71668089D01*
X127252000Y-71668089D01*
X127252000Y-68535958D01*
X129587647Y-68535958D01*
X129667920Y-68787259D01*
X130223279Y-68988718D01*
X130813458Y-68962315D01*
X131236080Y-68787259D01*
X131316353Y-68535958D01*
X130452000Y-67671605D01*
X129587647Y-68535958D01*
X127252000Y-68535958D01*
X127252000Y-67263279D01*
X128955282Y-67263279D01*
X128981685Y-67853458D01*
X129156741Y-68276080D01*
X129408042Y-68356353D01*
X130272395Y-67492000D01*
X130631605Y-67492000D01*
X131495958Y-68356353D01*
X131747259Y-68276080D01*
X131948718Y-67720721D01*
X131922315Y-67130542D01*
X131747259Y-66707920D01*
X131495958Y-66627647D01*
X130631605Y-67492000D01*
X130272395Y-67492000D01*
X129408042Y-66627647D01*
X129156741Y-66707920D01*
X128955282Y-67263279D01*
X127252000Y-67263279D01*
X127252000Y-66448042D01*
X129587647Y-66448042D01*
X130452000Y-67312395D01*
X131316353Y-66448042D01*
X131236080Y-66196741D01*
X130680721Y-65995282D01*
X130090542Y-66021685D01*
X129667920Y-66196741D01*
X129587647Y-66448042D01*
X127252000Y-66448042D01*
X127252000Y-64035958D01*
X129587647Y-64035958D01*
X129667920Y-64287259D01*
X130223279Y-64488718D01*
X130813458Y-64462315D01*
X131236080Y-64287259D01*
X131316353Y-64035958D01*
X130452000Y-63171605D01*
X129587647Y-64035958D01*
X127252000Y-64035958D01*
X127252000Y-62763279D01*
X128955282Y-62763279D01*
X128981685Y-63353458D01*
X129156741Y-63776080D01*
X129408042Y-63856353D01*
X130272395Y-62992000D01*
X130631605Y-62992000D01*
X131495958Y-63856353D01*
X131747259Y-63776080D01*
X131948718Y-63220721D01*
X131922315Y-62630542D01*
X131747259Y-62207920D01*
X131495958Y-62127647D01*
X130631605Y-62992000D01*
X130272395Y-62992000D01*
X129408042Y-62127647D01*
X129156741Y-62207920D01*
X128955282Y-62763279D01*
X127252000Y-62763279D01*
X127252000Y-62036802D01*
X127340760Y-61948042D01*
X129587647Y-61948042D01*
X130452000Y-62812395D01*
X131316353Y-61948042D01*
X131236080Y-61696741D01*
X130680721Y-61495282D01*
X130090542Y-61521685D01*
X129667920Y-61696741D01*
X129587647Y-61948042D01*
X127340760Y-61948042D01*
X132029401Y-57259401D01*
X132194148Y-57012839D01*
X132252000Y-56722000D01*
X132252000Y-55905558D01*
X132477317Y-55863162D01*
X132693441Y-55724090D01*
X132838431Y-55511890D01*
X132841081Y-55498803D01*
X132977910Y-55711441D01*
X133190110Y-55856431D01*
X133442000Y-55907440D01*
X134942000Y-55907440D01*
X135134828Y-55871157D01*
X135314000Y-55907440D01*
X136814000Y-55907440D01*
X137049317Y-55863162D01*
X137265441Y-55724090D01*
X137410431Y-55511890D01*
X137413081Y-55498803D01*
X137549910Y-55711441D01*
X137549910Y-55711441D01*
G37*
X137549910Y-55711441D02*
X137762110Y-55856431D01*
X138014000Y-55907440D01*
X139505998Y-55907440D01*
X139505998Y-57031200D01*
X138623198Y-57914000D01*
X136654954Y-57914000D01*
X136461147Y-57623946D01*
X135979378Y-57302039D01*
X135411093Y-57189000D01*
X135352907Y-57189000D01*
X134784622Y-57302039D01*
X134302853Y-57623946D01*
X133980946Y-58105715D01*
X133867907Y-58674000D01*
X133980946Y-59242285D01*
X134302853Y-59724054D01*
X134632026Y-59944000D01*
X134302853Y-60163946D01*
X133980946Y-60645715D01*
X133867907Y-61214000D01*
X133980946Y-61782285D01*
X134302853Y-62264054D01*
X134632026Y-62484000D01*
X134302853Y-62703946D01*
X133980946Y-63185715D01*
X133867907Y-63754000D01*
X133980946Y-64322285D01*
X134302853Y-64804054D01*
X134632026Y-65024000D01*
X134302853Y-65243946D01*
X133980946Y-65725715D01*
X133867907Y-66294000D01*
X133980946Y-66862285D01*
X134302853Y-67344054D01*
X134632026Y-67564000D01*
X134302853Y-67783946D01*
X133980946Y-68265715D01*
X133867907Y-68834000D01*
X133980946Y-69402285D01*
X134302853Y-69884054D01*
X134632026Y-70104000D01*
X134302853Y-70323946D01*
X133980946Y-70805715D01*
X133867907Y-71374000D01*
X133980946Y-71942285D01*
X134302853Y-72424054D01*
X134632026Y-72644000D01*
X134302853Y-72863946D01*
X133980946Y-73345715D01*
X133867907Y-73914000D01*
X133980946Y-74482285D01*
X134302853Y-74964054D01*
X134632026Y-75184000D01*
X134302853Y-75403946D01*
X133980946Y-75885715D01*
X133867907Y-76454000D01*
X133980946Y-77022285D01*
X134302853Y-77504054D01*
X134632026Y-77724000D01*
X134302853Y-77943946D01*
X134192568Y-78109000D01*
X131990089Y-78109000D01*
X131911890Y-78055569D01*
X131660000Y-78004560D01*
X129960000Y-78004560D01*
X129724683Y-78048838D01*
X129508559Y-78187910D01*
X129363569Y-78400110D01*
X129312560Y-78652000D01*
X129312560Y-80352000D01*
X129356838Y-80587317D01*
X129495910Y-80803441D01*
X129708110Y-80948431D01*
X129775541Y-80962086D01*
X129730853Y-80991946D01*
X129537046Y-81282000D01*
X127822802Y-81282000D01*
X127252000Y-80711198D01*
X127252000Y-76168089D01*
X128966743Y-76168089D01*
X129192344Y-76714086D01*
X129609717Y-77132188D01*
X130155319Y-77358742D01*
X130746089Y-77359257D01*
X131292086Y-77133656D01*
X131710188Y-76716283D01*
X131936742Y-76170681D01*
X131937257Y-75579911D01*
X131711656Y-75033914D01*
X131294283Y-74615812D01*
X130748681Y-74389258D01*
X130157911Y-74388743D01*
X129611914Y-74614344D01*
X129193812Y-75031717D01*
X128967258Y-75577319D01*
X128966743Y-76168089D01*
X127252000Y-76168089D01*
X127252000Y-71668089D01*
X128966743Y-71668089D01*
X129192344Y-72214086D01*
X129609717Y-72632188D01*
X130155319Y-72858742D01*
X130746089Y-72859257D01*
X131292086Y-72633656D01*
X131710188Y-72216283D01*
X131936742Y-71670681D01*
X131937257Y-71079911D01*
X131711656Y-70533914D01*
X131294283Y-70115812D01*
X130748681Y-69889258D01*
X130157911Y-69888743D01*
X129611914Y-70114344D01*
X129193812Y-70531717D01*
X128967258Y-71077319D01*
X128966743Y-71668089D01*
X127252000Y-71668089D01*
X127252000Y-68535958D01*
X129587647Y-68535958D01*
X129667920Y-68787259D01*
X130223279Y-68988718D01*
X130813458Y-68962315D01*
X131236080Y-68787259D01*
X131316353Y-68535958D01*
X130452000Y-67671605D01*
X129587647Y-68535958D01*
X127252000Y-68535958D01*
X127252000Y-67263279D01*
X128955282Y-67263279D01*
X128981685Y-67853458D01*
X129156741Y-68276080D01*
X129408042Y-68356353D01*
X130272395Y-67492000D01*
X130631605Y-67492000D01*
X131495958Y-68356353D01*
X131747259Y-68276080D01*
X131948718Y-67720721D01*
X131922315Y-67130542D01*
X131747259Y-66707920D01*
X131495958Y-66627647D01*
X130631605Y-67492000D01*
X130272395Y-67492000D01*
X129408042Y-66627647D01*
X129156741Y-66707920D01*
X128955282Y-67263279D01*
X127252000Y-67263279D01*
X127252000Y-66448042D01*
X129587647Y-66448042D01*
X130452000Y-67312395D01*
X131316353Y-66448042D01*
X131236080Y-66196741D01*
X130680721Y-65995282D01*
X130090542Y-66021685D01*
X129667920Y-66196741D01*
X129587647Y-66448042D01*
X127252000Y-66448042D01*
X127252000Y-64035958D01*
X129587647Y-64035958D01*
X129667920Y-64287259D01*
X130223279Y-64488718D01*
X130813458Y-64462315D01*
X131236080Y-64287259D01*
X131316353Y-64035958D01*
X130452000Y-63171605D01*
X129587647Y-64035958D01*
X127252000Y-64035958D01*
X127252000Y-62763279D01*
X128955282Y-62763279D01*
X128981685Y-63353458D01*
X129156741Y-63776080D01*
X129408042Y-63856353D01*
X130272395Y-62992000D01*
X130631605Y-62992000D01*
X131495958Y-63856353D01*
X131747259Y-63776080D01*
X131948718Y-63220721D01*
X131922315Y-62630542D01*
X131747259Y-62207920D01*
X131495958Y-62127647D01*
X130631605Y-62992000D01*
X130272395Y-62992000D01*
X129408042Y-62127647D01*
X129156741Y-62207920D01*
X128955282Y-62763279D01*
X127252000Y-62763279D01*
X127252000Y-62036802D01*
X127340760Y-61948042D01*
X129587647Y-61948042D01*
X130452000Y-62812395D01*
X131316353Y-61948042D01*
X131236080Y-61696741D01*
X130680721Y-61495282D01*
X130090542Y-61521685D01*
X129667920Y-61696741D01*
X129587647Y-61948042D01*
X127340760Y-61948042D01*
X132029401Y-57259401D01*
X132194148Y-57012839D01*
X132252000Y-56722000D01*
X132252000Y-55905558D01*
X132477317Y-55863162D01*
X132693441Y-55724090D01*
X132838431Y-55511890D01*
X132841081Y-55498803D01*
X132977910Y-55711441D01*
X133190110Y-55856431D01*
X133442000Y-55907440D01*
X134942000Y-55907440D01*
X135134828Y-55871157D01*
X135314000Y-55907440D01*
X136814000Y-55907440D01*
X137049317Y-55863162D01*
X137265441Y-55724090D01*
X137410431Y-55511890D01*
X137413081Y-55498803D01*
X137549910Y-55711441D01*
M02*
